<<<<<<< Updated upstream
<mxfile host="app.diagrams.net" agent="Mozilla/5.0 (Windows NT 10.0; Win64; x64) AppleWebKit/537.36 (KHTML, like Gecko) Chrome/129.0.0.0 Safari/537.36" version="24.7.16">
=======
<mxfile host="Electron" agent="Mozilla/5.0 (Windows NT 10.0; Win64; x64) AppleWebKit/537.36 (KHTML, like Gecko) draw.io/23.1.5 Chrome/120.0.6099.109 Electron/28.1.0 Safari/537.36" modified="2024-09-25T13:29:29.653Z" etag="bSoZ77t2-IarCsUTxhuL" version="23.1.5" type="device">
>>>>>>> Stashed changes
  <diagram id="R2lEEEUBdFMjLlhIrx00" name="Page-1">
    <mxGraphModel dx="1434" dy="772" grid="1" gridSize="10" guides="1" tooltips="1" connect="1" arrows="1" fold="1" page="1" pageScale="1" pageWidth="850" pageHeight="1100" math="0" shadow="0" extFonts="Permanent Marker^https://fonts.googleapis.com/css?family=Permanent+Marker">
      <root>
        <mxCell id="0" />
        <mxCell id="1" parent="0" />
        <mxCell id="C-vyLk0tnHw3VtMMgP7b-23" value="Administratorzy" style="shape=table;startSize=30;container=1;collapsible=1;childLayout=tableLayout;fixedRows=1;rowLines=0;fontStyle=1;align=center;resizeLast=1;fillColor=#60a917;strokeColor=#2D7600;fontColor=#ffffff;" parent="1" vertex="1">
          <mxGeometry x="10" y="20" width="250" height="100" as="geometry" />
        </mxCell>
        <mxCell id="C-vyLk0tnHw3VtMMgP7b-24" value="" style="shape=partialRectangle;collapsible=0;dropTarget=0;pointerEvents=0;fillColor=#60a917;points=[[0,0.5],[1,0.5]];portConstraint=eastwest;top=0;left=0;right=0;bottom=1;strokeColor=#2D7600;fontColor=#ffffff;" parent="C-vyLk0tnHw3VtMMgP7b-23" vertex="1">
          <mxGeometry y="30" width="250" height="30" as="geometry" />
        </mxCell>
        <mxCell id="C-vyLk0tnHw3VtMMgP7b-25" value="PK" style="shape=partialRectangle;overflow=hidden;connectable=0;fillColor=#60a917;top=0;left=0;bottom=0;right=0;fontStyle=1;strokeColor=#2D7600;fontColor=#ffffff;" parent="C-vyLk0tnHw3VtMMgP7b-24" vertex="1">
          <mxGeometry width="30" height="30" as="geometry">
            <mxRectangle width="30" height="30" as="alternateBounds" />
          </mxGeometry>
        </mxCell>
        <mxCell id="C-vyLk0tnHw3VtMMgP7b-26" value="id_administrator" style="shape=partialRectangle;overflow=hidden;connectable=0;fillColor=#60a917;top=0;left=0;bottom=0;right=0;align=left;spacingLeft=6;fontStyle=5;strokeColor=#2D7600;fontColor=#ffffff;" parent="C-vyLk0tnHw3VtMMgP7b-24" vertex="1">
          <mxGeometry x="30" width="220" height="30" as="geometry">
            <mxRectangle width="220" height="30" as="alternateBounds" />
          </mxGeometry>
        </mxCell>
        <mxCell id="C-vyLk0tnHw3VtMMgP7b-27" value="" style="shape=partialRectangle;collapsible=0;dropTarget=0;pointerEvents=0;fillColor=#60a917;points=[[0,0.5],[1,0.5]];portConstraint=eastwest;top=0;left=0;right=0;bottom=0;strokeColor=#2D7600;fontColor=#ffffff;" parent="C-vyLk0tnHw3VtMMgP7b-23" vertex="1">
          <mxGeometry y="60" width="250" height="30" as="geometry" />
        </mxCell>
        <mxCell id="C-vyLk0tnHw3VtMMgP7b-28" value="FK" style="shape=partialRectangle;overflow=hidden;connectable=0;fillColor=#60a917;top=0;left=0;bottom=0;right=0;strokeColor=#2D7600;fontColor=#ffffff;" parent="C-vyLk0tnHw3VtMMgP7b-27" vertex="1">
          <mxGeometry width="30" height="30" as="geometry">
            <mxRectangle width="30" height="30" as="alternateBounds" />
          </mxGeometry>
        </mxCell>
        <mxCell id="C-vyLk0tnHw3VtMMgP7b-29" value="id_pracownik" style="shape=partialRectangle;overflow=hidden;connectable=0;fillColor=#60a917;top=0;left=0;bottom=0;right=0;align=left;spacingLeft=6;strokeColor=#2D7600;fontColor=#ffffff;" parent="C-vyLk0tnHw3VtMMgP7b-27" vertex="1">
          <mxGeometry x="30" width="220" height="30" as="geometry">
            <mxRectangle width="220" height="30" as="alternateBounds" />
          </mxGeometry>
        </mxCell>
        <mxCell id="Ke3Zf-WkF-uCMZBBV6F5-1" value="Pracownicy" style="shape=table;startSize=30;container=1;collapsible=1;childLayout=tableLayout;fixedRows=1;rowLines=0;fontStyle=1;align=center;resizeLast=1;fillColor=#60a917;strokeColor=#2D7600;fontColor=#ffffff;" parent="1" vertex="1">
          <mxGeometry x="350" y="20" width="250" height="550" as="geometry" />
        </mxCell>
        <mxCell id="Ke3Zf-WkF-uCMZBBV6F5-2" value="" style="shape=partialRectangle;collapsible=0;dropTarget=0;pointerEvents=0;fillColor=#60a917;points=[[0,0.5],[1,0.5]];portConstraint=eastwest;top=0;left=0;right=0;bottom=1;strokeColor=#2D7600;fontColor=#ffffff;" parent="Ke3Zf-WkF-uCMZBBV6F5-1" vertex="1">
          <mxGeometry y="30" width="250" height="30" as="geometry" />
        </mxCell>
        <mxCell id="Ke3Zf-WkF-uCMZBBV6F5-3" value="PK" style="shape=partialRectangle;overflow=hidden;connectable=0;fillColor=#60a917;top=0;left=0;bottom=0;right=0;fontStyle=1;strokeColor=#2D7600;fontColor=#ffffff;" parent="Ke3Zf-WkF-uCMZBBV6F5-2" vertex="1">
          <mxGeometry width="30" height="30" as="geometry">
            <mxRectangle width="30" height="30" as="alternateBounds" />
          </mxGeometry>
        </mxCell>
        <mxCell id="Ke3Zf-WkF-uCMZBBV6F5-4" value="id_pracownik" style="shape=partialRectangle;overflow=hidden;connectable=0;fillColor=#60a917;top=0;left=0;bottom=0;right=0;align=left;spacingLeft=6;fontStyle=5;strokeColor=#2D7600;fontColor=#ffffff;" parent="Ke3Zf-WkF-uCMZBBV6F5-2" vertex="1">
          <mxGeometry x="30" width="220" height="30" as="geometry">
            <mxRectangle width="220" height="30" as="alternateBounds" />
          </mxGeometry>
        </mxCell>
        <mxCell id="Ke3Zf-WkF-uCMZBBV6F5-5" value="" style="shape=partialRectangle;collapsible=0;dropTarget=0;pointerEvents=0;fillColor=#60a917;points=[[0,0.5],[1,0.5]];portConstraint=eastwest;top=0;left=0;right=0;bottom=0;strokeColor=#2D7600;fontColor=#ffffff;" parent="Ke3Zf-WkF-uCMZBBV6F5-1" vertex="1">
          <mxGeometry y="60" width="250" height="30" as="geometry" />
        </mxCell>
        <mxCell id="Ke3Zf-WkF-uCMZBBV6F5-6" value="" style="shape=partialRectangle;overflow=hidden;connectable=0;fillColor=#60a917;top=0;left=0;bottom=0;right=0;strokeColor=#2D7600;fontColor=#ffffff;" parent="Ke3Zf-WkF-uCMZBBV6F5-5" vertex="1">
          <mxGeometry width="30" height="30" as="geometry">
            <mxRectangle width="30" height="30" as="alternateBounds" />
          </mxGeometry>
        </mxCell>
        <mxCell id="Ke3Zf-WkF-uCMZBBV6F5-7" value="ImiÄ™" style="shape=partialRectangle;overflow=hidden;connectable=0;fillColor=#60a917;top=0;left=0;bottom=0;right=0;align=left;spacingLeft=6;strokeColor=#2D7600;fontColor=#ffffff;" parent="Ke3Zf-WkF-uCMZBBV6F5-5" vertex="1">
          <mxGeometry x="30" width="220" height="30" as="geometry">
            <mxRectangle width="220" height="30" as="alternateBounds" />
          </mxGeometry>
        </mxCell>
        <mxCell id="Ke3Zf-WkF-uCMZBBV6F5-8" style="shape=partialRectangle;collapsible=0;dropTarget=0;pointerEvents=0;fillColor=#60a917;points=[[0,0.5],[1,0.5]];portConstraint=eastwest;top=0;left=0;right=0;bottom=0;strokeColor=#2D7600;fontColor=#ffffff;" parent="Ke3Zf-WkF-uCMZBBV6F5-1" vertex="1">
          <mxGeometry y="90" width="250" height="30" as="geometry" />
        </mxCell>
        <mxCell id="Ke3Zf-WkF-uCMZBBV6F5-9" style="shape=partialRectangle;overflow=hidden;connectable=0;fillColor=#60a917;top=0;left=0;bottom=0;right=0;strokeColor=#2D7600;fontColor=#ffffff;" parent="Ke3Zf-WkF-uCMZBBV6F5-8" vertex="1">
          <mxGeometry width="30" height="30" as="geometry">
            <mxRectangle width="30" height="30" as="alternateBounds" />
          </mxGeometry>
        </mxCell>
        <mxCell id="Ke3Zf-WkF-uCMZBBV6F5-10" value="Nazwisko" style="shape=partialRectangle;overflow=hidden;connectable=0;fillColor=#60a917;top=0;left=0;bottom=0;right=0;align=left;spacingLeft=6;strokeColor=#2D7600;fontColor=#ffffff;" parent="Ke3Zf-WkF-uCMZBBV6F5-8" vertex="1">
          <mxGeometry x="30" width="220" height="30" as="geometry">
            <mxRectangle width="220" height="30" as="alternateBounds" />
          </mxGeometry>
        </mxCell>
        <mxCell id="Ke3Zf-WkF-uCMZBBV6F5-11" style="shape=partialRectangle;collapsible=0;dropTarget=0;pointerEvents=0;fillColor=#60a917;points=[[0,0.5],[1,0.5]];portConstraint=eastwest;top=0;left=0;right=0;bottom=0;strokeColor=#2D7600;fontColor=#ffffff;" parent="Ke3Zf-WkF-uCMZBBV6F5-1" vertex="1">
          <mxGeometry y="120" width="250" height="30" as="geometry" />
        </mxCell>
        <mxCell id="Ke3Zf-WkF-uCMZBBV6F5-12" style="shape=partialRectangle;overflow=hidden;connectable=0;fillColor=#60a917;top=0;left=0;bottom=0;right=0;strokeColor=#2D7600;fontColor=#ffffff;" parent="Ke3Zf-WkF-uCMZBBV6F5-11" vertex="1">
          <mxGeometry width="30" height="30" as="geometry">
            <mxRectangle width="30" height="30" as="alternateBounds" />
          </mxGeometry>
        </mxCell>
        <mxCell id="Ke3Zf-WkF-uCMZBBV6F5-13" value="Adres zamieszkania" style="shape=partialRectangle;overflow=hidden;connectable=0;fillColor=#60a917;top=0;left=0;bottom=0;right=0;align=left;spacingLeft=6;strokeColor=#2D7600;fontColor=#ffffff;" parent="Ke3Zf-WkF-uCMZBBV6F5-11" vertex="1">
          <mxGeometry x="30" width="220" height="30" as="geometry">
            <mxRectangle width="220" height="30" as="alternateBounds" />
          </mxGeometry>
        </mxCell>
        <mxCell id="Ke3Zf-WkF-uCMZBBV6F5-14" style="shape=partialRectangle;collapsible=0;dropTarget=0;pointerEvents=0;fillColor=#60a917;points=[[0,0.5],[1,0.5]];portConstraint=eastwest;top=0;left=0;right=0;bottom=0;strokeColor=#2D7600;fontColor=#ffffff;" parent="Ke3Zf-WkF-uCMZBBV6F5-1" vertex="1">
          <mxGeometry y="150" width="250" height="30" as="geometry" />
        </mxCell>
        <mxCell id="Ke3Zf-WkF-uCMZBBV6F5-15" value="FK" style="shape=partialRectangle;overflow=hidden;connectable=0;fillColor=#60a917;top=0;left=0;bottom=0;right=0;strokeColor=#2D7600;fontColor=#ffffff;" parent="Ke3Zf-WkF-uCMZBBV6F5-14" vertex="1">
          <mxGeometry width="30" height="30" as="geometry">
            <mxRectangle width="30" height="30" as="alternateBounds" />
          </mxGeometry>
        </mxCell>
        <mxCell id="Ke3Zf-WkF-uCMZBBV6F5-16" value="id_numer_kierunkowy" style="shape=partialRectangle;overflow=hidden;connectable=0;fillColor=#60a917;top=0;left=0;bottom=0;right=0;align=left;spacingLeft=6;strokeColor=#2D7600;fontColor=#ffffff;" parent="Ke3Zf-WkF-uCMZBBV6F5-14" vertex="1">
          <mxGeometry x="30" width="220" height="30" as="geometry">
            <mxRectangle width="220" height="30" as="alternateBounds" />
          </mxGeometry>
        </mxCell>
        <mxCell id="KKkE_Qui8zbe5Bdun0iC-171" style="shape=partialRectangle;collapsible=0;dropTarget=0;pointerEvents=0;fillColor=#60a917;points=[[0,0.5],[1,0.5]];portConstraint=eastwest;top=0;left=0;right=0;bottom=0;strokeColor=#2D7600;fontColor=#ffffff;" parent="Ke3Zf-WkF-uCMZBBV6F5-1" vertex="1">
          <mxGeometry y="180" width="250" height="30" as="geometry" />
        </mxCell>
        <mxCell id="KKkE_Qui8zbe5Bdun0iC-172" style="shape=partialRectangle;overflow=hidden;connectable=0;fillColor=#60a917;top=0;left=0;bottom=0;right=0;strokeColor=#2D7600;fontColor=#ffffff;" parent="KKkE_Qui8zbe5Bdun0iC-171" vertex="1">
          <mxGeometry width="30" height="30" as="geometry">
            <mxRectangle width="30" height="30" as="alternateBounds" />
          </mxGeometry>
        </mxCell>
        <mxCell id="KKkE_Qui8zbe5Bdun0iC-173" value="numer telefonu" style="shape=partialRectangle;overflow=hidden;connectable=0;fillColor=#60a917;top=0;left=0;bottom=0;right=0;align=left;spacingLeft=6;strokeColor=#2D7600;fontColor=#ffffff;" parent="KKkE_Qui8zbe5Bdun0iC-171" vertex="1">
          <mxGeometry x="30" width="220" height="30" as="geometry">
            <mxRectangle width="220" height="30" as="alternateBounds" />
          </mxGeometry>
        </mxCell>
        <mxCell id="Ke3Zf-WkF-uCMZBBV6F5-17" style="shape=partialRectangle;collapsible=0;dropTarget=0;pointerEvents=0;fillColor=#60a917;points=[[0,0.5],[1,0.5]];portConstraint=eastwest;top=0;left=0;right=0;bottom=0;strokeColor=#2D7600;fontColor=#ffffff;" parent="Ke3Zf-WkF-uCMZBBV6F5-1" vertex="1">
          <mxGeometry y="210" width="250" height="30" as="geometry" />
        </mxCell>
        <mxCell id="Ke3Zf-WkF-uCMZBBV6F5-18" style="shape=partialRectangle;overflow=hidden;connectable=0;fillColor=#60a917;top=0;left=0;bottom=0;right=0;strokeColor=#2D7600;fontColor=#ffffff;" parent="Ke3Zf-WkF-uCMZBBV6F5-17" vertex="1">
          <mxGeometry width="30" height="30" as="geometry">
            <mxRectangle width="30" height="30" as="alternateBounds" />
          </mxGeometry>
        </mxCell>
        <mxCell id="Ke3Zf-WkF-uCMZBBV6F5-19" value="adres e-mail" style="shape=partialRectangle;overflow=hidden;connectable=0;fillColor=#60a917;top=0;left=0;bottom=0;right=0;align=left;spacingLeft=6;strokeColor=#2D7600;fontColor=#ffffff;" parent="Ke3Zf-WkF-uCMZBBV6F5-17" vertex="1">
          <mxGeometry x="30" width="220" height="30" as="geometry">
            <mxRectangle width="220" height="30" as="alternateBounds" />
          </mxGeometry>
        </mxCell>
        <mxCell id="Ke3Zf-WkF-uCMZBBV6F5-20" style="shape=partialRectangle;collapsible=0;dropTarget=0;pointerEvents=0;fillColor=#60a917;points=[[0,0.5],[1,0.5]];portConstraint=eastwest;top=0;left=0;right=0;bottom=0;strokeColor=#2D7600;fontColor=#ffffff;" parent="Ke3Zf-WkF-uCMZBBV6F5-1" vertex="1">
          <mxGeometry y="240" width="250" height="30" as="geometry" />
        </mxCell>
        <mxCell id="Ke3Zf-WkF-uCMZBBV6F5-21" value="FK" style="shape=partialRectangle;overflow=hidden;connectable=0;fillColor=#60a917;top=0;left=0;bottom=0;right=0;strokeColor=#2D7600;fontColor=#ffffff;" parent="Ke3Zf-WkF-uCMZBBV6F5-20" vertex="1">
          <mxGeometry width="30" height="30" as="geometry">
            <mxRectangle width="30" height="30" as="alternateBounds" />
          </mxGeometry>
        </mxCell>
        <mxCell id="Ke3Zf-WkF-uCMZBBV6F5-22" value="id_stanowisko" style="shape=partialRectangle;overflow=hidden;connectable=0;fillColor=#60a917;top=0;left=0;bottom=0;right=0;align=left;spacingLeft=6;strokeColor=#2D7600;fontColor=#ffffff;" parent="Ke3Zf-WkF-uCMZBBV6F5-20" vertex="1">
          <mxGeometry x="30" width="220" height="30" as="geometry">
            <mxRectangle width="220" height="30" as="alternateBounds" />
          </mxGeometry>
        </mxCell>
        <mxCell id="Ke3Zf-WkF-uCMZBBV6F5-24" style="shape=partialRectangle;collapsible=0;dropTarget=0;pointerEvents=0;fillColor=#60a917;points=[[0,0.5],[1,0.5]];portConstraint=eastwest;top=0;left=0;right=0;bottom=0;strokeColor=#2D7600;fontColor=#ffffff;" parent="Ke3Zf-WkF-uCMZBBV6F5-1" vertex="1">
          <mxGeometry y="270" width="250" height="30" as="geometry" />
        </mxCell>
        <mxCell id="Ke3Zf-WkF-uCMZBBV6F5-25" value="FK" style="shape=partialRectangle;overflow=hidden;connectable=0;fillColor=#60a917;top=0;left=0;bottom=0;right=0;strokeColor=#2D7600;fontColor=#ffffff;" parent="Ke3Zf-WkF-uCMZBBV6F5-24" vertex="1">
          <mxGeometry width="30" height="30" as="geometry">
            <mxRectangle width="30" height="30" as="alternateBounds" />
          </mxGeometry>
        </mxCell>
        <mxCell id="Ke3Zf-WkF-uCMZBBV6F5-26" value="id_lokalizacja-pracy" style="shape=partialRectangle;overflow=hidden;connectable=0;fillColor=#60a917;top=0;left=0;bottom=0;right=0;align=left;spacingLeft=6;strokeColor=#2D7600;fontColor=#ffffff;" parent="Ke3Zf-WkF-uCMZBBV6F5-24" vertex="1">
          <mxGeometry x="30" width="220" height="30" as="geometry">
            <mxRectangle width="220" height="30" as="alternateBounds" />
          </mxGeometry>
        </mxCell>
        <mxCell id="Ke3Zf-WkF-uCMZBBV6F5-27" style="shape=partialRectangle;collapsible=0;dropTarget=0;pointerEvents=0;fillColor=#60a917;points=[[0,0.5],[1,0.5]];portConstraint=eastwest;top=0;left=0;right=0;bottom=0;strokeColor=#2D7600;fontColor=#ffffff;" parent="Ke3Zf-WkF-uCMZBBV6F5-1" vertex="1">
          <mxGeometry y="300" width="250" height="30" as="geometry" />
        </mxCell>
        <mxCell id="Ke3Zf-WkF-uCMZBBV6F5-28" value="FK" style="shape=partialRectangle;overflow=hidden;connectable=0;fillColor=#60a917;top=0;left=0;bottom=0;right=0;strokeColor=#2D7600;fontColor=#ffffff;" parent="Ke3Zf-WkF-uCMZBBV6F5-27" vertex="1">
          <mxGeometry width="30" height="30" as="geometry">
            <mxRectangle width="30" height="30" as="alternateBounds" />
          </mxGeometry>
        </mxCell>
        <mxCell id="Ke3Zf-WkF-uCMZBBV6F5-29" value="id_dziaÅ‚" style="shape=partialRectangle;overflow=hidden;connectable=0;fillColor=#60a917;top=0;left=0;bottom=0;right=0;align=left;spacingLeft=6;strokeColor=#2D7600;fontColor=#ffffff;" parent="Ke3Zf-WkF-uCMZBBV6F5-27" vertex="1">
          <mxGeometry x="30" width="220" height="30" as="geometry">
            <mxRectangle width="220" height="30" as="alternateBounds" />
          </mxGeometry>
        </mxCell>
        <mxCell id="Ke3Zf-WkF-uCMZBBV6F5-30" style="shape=partialRectangle;collapsible=0;dropTarget=0;pointerEvents=0;fillColor=#60a917;points=[[0,0.5],[1,0.5]];portConstraint=eastwest;top=0;left=0;right=0;bottom=0;strokeColor=#2D7600;fontColor=#ffffff;" parent="Ke3Zf-WkF-uCMZBBV6F5-1" vertex="1">
          <mxGeometry y="330" width="250" height="30" as="geometry" />
        </mxCell>
        <mxCell id="Ke3Zf-WkF-uCMZBBV6F5-31" style="shape=partialRectangle;overflow=hidden;connectable=0;fillColor=#60a917;top=0;left=0;bottom=0;right=0;strokeColor=#2D7600;fontColor=#ffffff;" parent="Ke3Zf-WkF-uCMZBBV6F5-30" vertex="1">
          <mxGeometry width="30" height="30" as="geometry">
            <mxRectangle width="30" height="30" as="alternateBounds" />
          </mxGeometry>
        </mxCell>
        <mxCell id="Ke3Zf-WkF-uCMZBBV6F5-32" value="PESEL" style="shape=partialRectangle;overflow=hidden;connectable=0;fillColor=#60a917;top=0;left=0;bottom=0;right=0;align=left;spacingLeft=6;strokeColor=#2D7600;fontColor=#ffffff;" parent="Ke3Zf-WkF-uCMZBBV6F5-30" vertex="1">
          <mxGeometry x="30" width="220" height="30" as="geometry">
            <mxRectangle width="220" height="30" as="alternateBounds" />
          </mxGeometry>
        </mxCell>
        <mxCell id="Ke3Zf-WkF-uCMZBBV6F5-33" style="shape=partialRectangle;collapsible=0;dropTarget=0;pointerEvents=0;fillColor=#60a917;points=[[0,0.5],[1,0.5]];portConstraint=eastwest;top=0;left=0;right=0;bottom=0;strokeColor=#2D7600;fontColor=#ffffff;" parent="Ke3Zf-WkF-uCMZBBV6F5-1" vertex="1">
          <mxGeometry y="360" width="250" height="30" as="geometry" />
        </mxCell>
        <mxCell id="Ke3Zf-WkF-uCMZBBV6F5-34" style="shape=partialRectangle;overflow=hidden;connectable=0;fillColor=#60a917;top=0;left=0;bottom=0;right=0;strokeColor=#2D7600;fontColor=#ffffff;" parent="Ke3Zf-WkF-uCMZBBV6F5-33" vertex="1">
          <mxGeometry width="30" height="30" as="geometry">
            <mxRectangle width="30" height="30" as="alternateBounds" />
          </mxGeometry>
        </mxCell>
        <mxCell id="Ke3Zf-WkF-uCMZBBV6F5-35" value="numer umowy" style="shape=partialRectangle;overflow=hidden;connectable=0;fillColor=#60a917;top=0;left=0;bottom=0;right=0;align=left;spacingLeft=6;strokeColor=#2D7600;fontColor=#ffffff;" parent="Ke3Zf-WkF-uCMZBBV6F5-33" vertex="1">
          <mxGeometry x="30" width="220" height="30" as="geometry">
            <mxRectangle width="220" height="30" as="alternateBounds" />
          </mxGeometry>
        </mxCell>
        <mxCell id="Ke3Zf-WkF-uCMZBBV6F5-36" style="shape=partialRectangle;collapsible=0;dropTarget=0;pointerEvents=0;fillColor=#60a917;points=[[0,0.5],[1,0.5]];portConstraint=eastwest;top=0;left=0;right=0;bottom=0;strokeColor=#2D7600;fontColor=#ffffff;" parent="Ke3Zf-WkF-uCMZBBV6F5-1" vertex="1">
          <mxGeometry y="390" width="250" height="30" as="geometry" />
        </mxCell>
        <mxCell id="Ke3Zf-WkF-uCMZBBV6F5-37" style="shape=partialRectangle;overflow=hidden;connectable=0;fillColor=#60a917;top=0;left=0;bottom=0;right=0;strokeColor=#2D7600;fontColor=#ffffff;" parent="Ke3Zf-WkF-uCMZBBV6F5-36" vertex="1">
          <mxGeometry width="30" height="30" as="geometry">
            <mxRectangle width="30" height="30" as="alternateBounds" />
          </mxGeometry>
        </mxCell>
        <mxCell id="Ke3Zf-WkF-uCMZBBV6F5-38" value="numer ubezpieczenia" style="shape=partialRectangle;overflow=hidden;connectable=0;fillColor=#60a917;top=0;left=0;bottom=0;right=0;align=left;spacingLeft=6;strokeColor=#2D7600;fontColor=#ffffff;" parent="Ke3Zf-WkF-uCMZBBV6F5-36" vertex="1">
          <mxGeometry x="30" width="220" height="30" as="geometry">
            <mxRectangle width="220" height="30" as="alternateBounds" />
          </mxGeometry>
        </mxCell>
        <mxCell id="Ke3Zf-WkF-uCMZBBV6F5-45" style="shape=partialRectangle;collapsible=0;dropTarget=0;pointerEvents=0;fillColor=#60a917;points=[[0,0.5],[1,0.5]];portConstraint=eastwest;top=0;left=0;right=0;bottom=0;strokeColor=#2D7600;fontColor=#ffffff;" parent="Ke3Zf-WkF-uCMZBBV6F5-1" vertex="1">
          <mxGeometry y="420" width="250" height="30" as="geometry" />
        </mxCell>
        <mxCell id="Ke3Zf-WkF-uCMZBBV6F5-46" value="FK" style="shape=partialRectangle;overflow=hidden;connectable=0;fillColor=#60a917;top=0;left=0;bottom=0;right=0;strokeColor=#2D7600;fontColor=#ffffff;" parent="Ke3Zf-WkF-uCMZBBV6F5-45" vertex="1">
          <mxGeometry width="30" height="30" as="geometry">
            <mxRectangle width="30" height="30" as="alternateBounds" />
          </mxGeometry>
        </mxCell>
        <mxCell id="Ke3Zf-WkF-uCMZBBV6F5-47" value="id_samochÃ³d" style="shape=partialRectangle;overflow=hidden;connectable=0;fillColor=#60a917;top=0;left=0;bottom=0;right=0;align=left;spacingLeft=6;strokeColor=#2D7600;fontColor=#ffffff;" parent="Ke3Zf-WkF-uCMZBBV6F5-45" vertex="1">
          <mxGeometry x="30" width="220" height="30" as="geometry">
            <mxRectangle width="220" height="30" as="alternateBounds" />
          </mxGeometry>
        </mxCell>
        <mxCell id="Ke3Zf-WkF-uCMZBBV6F5-42" style="shape=partialRectangle;collapsible=0;dropTarget=0;pointerEvents=0;fillColor=#60a917;points=[[0,0.5],[1,0.5]];portConstraint=eastwest;top=0;left=0;right=0;bottom=0;strokeColor=#2D7600;fontColor=#ffffff;" parent="Ke3Zf-WkF-uCMZBBV6F5-1" vertex="1">
          <mxGeometry y="450" width="250" height="30" as="geometry" />
        </mxCell>
        <mxCell id="Ke3Zf-WkF-uCMZBBV6F5-43" style="shape=partialRectangle;overflow=hidden;connectable=0;fillColor=#60a917;top=0;left=0;bottom=0;right=0;strokeColor=#2D7600;fontColor=#ffffff;" parent="Ke3Zf-WkF-uCMZBBV6F5-42" vertex="1">
          <mxGeometry width="30" height="30" as="geometry">
            <mxRectangle width="30" height="30" as="alternateBounds" />
          </mxGeometry>
        </mxCell>
        <mxCell id="Ke3Zf-WkF-uCMZBBV6F5-44" value="data urodzenia" style="shape=partialRectangle;overflow=hidden;connectable=0;fillColor=#60a917;top=0;left=0;bottom=0;right=0;align=left;spacingLeft=6;strokeColor=#2D7600;fontColor=#ffffff;" parent="Ke3Zf-WkF-uCMZBBV6F5-42" vertex="1">
          <mxGeometry x="30" width="220" height="30" as="geometry">
            <mxRectangle width="220" height="30" as="alternateBounds" />
          </mxGeometry>
        </mxCell>
        <mxCell id="Ke3Zf-WkF-uCMZBBV6F5-39" style="shape=partialRectangle;collapsible=0;dropTarget=0;pointerEvents=0;fillColor=#60a917;points=[[0,0.5],[1,0.5]];portConstraint=eastwest;top=0;left=0;right=0;bottom=0;strokeColor=#2D7600;fontColor=#ffffff;" parent="Ke3Zf-WkF-uCMZBBV6F5-1" vertex="1">
          <mxGeometry y="480" width="250" height="30" as="geometry" />
        </mxCell>
        <mxCell id="Ke3Zf-WkF-uCMZBBV6F5-40" style="shape=partialRectangle;overflow=hidden;connectable=0;fillColor=#60a917;top=0;left=0;bottom=0;right=0;strokeColor=#2D7600;fontColor=#ffffff;" parent="Ke3Zf-WkF-uCMZBBV6F5-39" vertex="1">
          <mxGeometry width="30" height="30" as="geometry">
            <mxRectangle width="30" height="30" as="alternateBounds" />
          </mxGeometry>
        </mxCell>
        <mxCell id="Ke3Zf-WkF-uCMZBBV6F5-41" value="data zatrudnienia" style="shape=partialRectangle;overflow=hidden;connectable=0;fillColor=#60a917;top=0;left=0;bottom=0;right=0;align=left;spacingLeft=6;strokeColor=#2D7600;fontColor=#ffffff;" parent="Ke3Zf-WkF-uCMZBBV6F5-39" vertex="1">
          <mxGeometry x="30" width="220" height="30" as="geometry">
            <mxRectangle width="220" height="30" as="alternateBounds" />
          </mxGeometry>
        </mxCell>
        <mxCell id="Ke3Zf-WkF-uCMZBBV6F5-60" style="shape=partialRectangle;collapsible=0;dropTarget=0;pointerEvents=0;fillColor=#60a917;points=[[0,0.5],[1,0.5]];portConstraint=eastwest;top=0;left=0;right=0;bottom=0;strokeColor=#2D7600;fontColor=#ffffff;" parent="Ke3Zf-WkF-uCMZBBV6F5-1" vertex="1">
          <mxGeometry y="510" width="250" height="30" as="geometry" />
        </mxCell>
        <mxCell id="Ke3Zf-WkF-uCMZBBV6F5-61" style="shape=partialRectangle;overflow=hidden;connectable=0;fillColor=#60a917;top=0;left=0;bottom=0;right=0;strokeColor=#2D7600;fontColor=#ffffff;" parent="Ke3Zf-WkF-uCMZBBV6F5-60" vertex="1">
          <mxGeometry width="30" height="30" as="geometry">
            <mxRectangle width="30" height="30" as="alternateBounds" />
          </mxGeometry>
        </mxCell>
        <mxCell id="Ke3Zf-WkF-uCMZBBV6F5-62" value="wynagrodzenie" style="shape=partialRectangle;overflow=hidden;connectable=0;fillColor=#60a917;top=0;left=0;bottom=0;right=0;align=left;spacingLeft=6;strokeColor=#2D7600;fontColor=#ffffff;" parent="Ke3Zf-WkF-uCMZBBV6F5-60" vertex="1">
          <mxGeometry x="30" width="220" height="30" as="geometry">
            <mxRectangle width="220" height="30" as="alternateBounds" />
          </mxGeometry>
        </mxCell>
        <mxCell id="Ke3Zf-WkF-uCMZBBV6F5-23" style="edgeStyle=orthogonalEdgeStyle;rounded=0;orthogonalLoop=1;jettySize=auto;html=1;entryX=1;entryY=0.5;entryDx=0;entryDy=0;fillColor=#60a917;strokeColor=#2D7600;" parent="1" source="Ke3Zf-WkF-uCMZBBV6F5-2" target="C-vyLk0tnHw3VtMMgP7b-27" edge="1">
          <mxGeometry relative="1" as="geometry">
            <Array as="points">
              <mxPoint x="305" y="65" />
              <mxPoint x="305" y="95" />
            </Array>
          </mxGeometry>
        </mxCell>
        <mxCell id="Ke3Zf-WkF-uCMZBBV6F5-48" value="Stanowiska" style="shape=table;startSize=30;container=1;collapsible=1;childLayout=tableLayout;fixedRows=1;rowLines=0;fontStyle=1;align=center;resizeLast=1;fillColor=#60a917;strokeColor=#2D7600;fontColor=#ffffff;" parent="1" vertex="1">
          <mxGeometry x="10" y="130" width="250" height="100" as="geometry" />
        </mxCell>
        <mxCell id="Ke3Zf-WkF-uCMZBBV6F5-49" value="" style="shape=partialRectangle;collapsible=0;dropTarget=0;pointerEvents=0;fillColor=#60a917;points=[[0,0.5],[1,0.5]];portConstraint=eastwest;top=0;left=0;right=0;bottom=1;strokeColor=#2D7600;fontColor=#ffffff;" parent="Ke3Zf-WkF-uCMZBBV6F5-48" vertex="1">
          <mxGeometry y="30" width="250" height="30" as="geometry" />
        </mxCell>
        <mxCell id="Ke3Zf-WkF-uCMZBBV6F5-50" value="PK" style="shape=partialRectangle;overflow=hidden;connectable=0;fillColor=#60a917;top=0;left=0;bottom=0;right=0;fontStyle=1;strokeColor=#2D7600;fontColor=#ffffff;" parent="Ke3Zf-WkF-uCMZBBV6F5-49" vertex="1">
          <mxGeometry width="30" height="30" as="geometry">
            <mxRectangle width="30" height="30" as="alternateBounds" />
          </mxGeometry>
        </mxCell>
        <mxCell id="Ke3Zf-WkF-uCMZBBV6F5-51" value="id_stanowisko" style="shape=partialRectangle;overflow=hidden;connectable=0;fillColor=#60a917;top=0;left=0;bottom=0;right=0;align=left;spacingLeft=6;fontStyle=5;strokeColor=#2D7600;fontColor=#ffffff;" parent="Ke3Zf-WkF-uCMZBBV6F5-49" vertex="1">
          <mxGeometry x="30" width="220" height="30" as="geometry">
            <mxRectangle width="220" height="30" as="alternateBounds" />
          </mxGeometry>
        </mxCell>
        <mxCell id="Ke3Zf-WkF-uCMZBBV6F5-52" value="" style="shape=partialRectangle;collapsible=0;dropTarget=0;pointerEvents=0;fillColor=#60a917;points=[[0,0.5],[1,0.5]];portConstraint=eastwest;top=0;left=0;right=0;bottom=0;strokeColor=#2D7600;fontColor=#ffffff;" parent="Ke3Zf-WkF-uCMZBBV6F5-48" vertex="1">
          <mxGeometry y="60" width="250" height="30" as="geometry" />
        </mxCell>
        <mxCell id="Ke3Zf-WkF-uCMZBBV6F5-53" value="" style="shape=partialRectangle;overflow=hidden;connectable=0;fillColor=#60a917;top=0;left=0;bottom=0;right=0;strokeColor=#2D7600;fontColor=#ffffff;" parent="Ke3Zf-WkF-uCMZBBV6F5-52" vertex="1">
          <mxGeometry width="30" height="30" as="geometry">
            <mxRectangle width="30" height="30" as="alternateBounds" />
          </mxGeometry>
        </mxCell>
        <mxCell id="Ke3Zf-WkF-uCMZBBV6F5-54" value="nazwa" style="shape=partialRectangle;overflow=hidden;connectable=0;fillColor=#60a917;top=0;left=0;bottom=0;right=0;align=left;spacingLeft=6;strokeColor=#2D7600;fontColor=#ffffff;" parent="Ke3Zf-WkF-uCMZBBV6F5-52" vertex="1">
          <mxGeometry x="30" width="220" height="30" as="geometry">
            <mxRectangle width="220" height="30" as="alternateBounds" />
          </mxGeometry>
        </mxCell>
        <mxCell id="Ke3Zf-WkF-uCMZBBV6F5-56" style="edgeStyle=orthogonalEdgeStyle;rounded=0;orthogonalLoop=1;jettySize=auto;html=1;fillColor=#60a917;strokeColor=#2D7600;" parent="1" source="Ke3Zf-WkF-uCMZBBV6F5-49" target="Ke3Zf-WkF-uCMZBBV6F5-20" edge="1">
          <mxGeometry relative="1" as="geometry" />
        </mxCell>
        <mxCell id="Ke3Zf-WkF-uCMZBBV6F5-63" value="Lokalizacje" style="shape=table;startSize=30;container=1;collapsible=1;childLayout=tableLayout;fixedRows=1;rowLines=0;fontStyle=1;align=center;resizeLast=1;fillColor=#60a917;strokeColor=#2D7600;fontColor=#ffffff;" parent="1" vertex="1">
          <mxGeometry x="10" y="240" width="250" height="220" as="geometry" />
        </mxCell>
        <mxCell id="Ke3Zf-WkF-uCMZBBV6F5-64" value="" style="shape=partialRectangle;collapsible=0;dropTarget=0;pointerEvents=0;fillColor=#60a917;points=[[0,0.5],[1,0.5]];portConstraint=eastwest;top=0;left=0;right=0;bottom=1;strokeColor=#2D7600;fontColor=#ffffff;" parent="Ke3Zf-WkF-uCMZBBV6F5-63" vertex="1">
          <mxGeometry y="30" width="250" height="30" as="geometry" />
        </mxCell>
        <mxCell id="Ke3Zf-WkF-uCMZBBV6F5-65" value="PK" style="shape=partialRectangle;overflow=hidden;connectable=0;fillColor=#60a917;top=0;left=0;bottom=0;right=0;fontStyle=1;strokeColor=#2D7600;fontColor=#ffffff;" parent="Ke3Zf-WkF-uCMZBBV6F5-64" vertex="1">
          <mxGeometry width="30" height="30" as="geometry">
            <mxRectangle width="30" height="30" as="alternateBounds" />
          </mxGeometry>
        </mxCell>
        <mxCell id="Ke3Zf-WkF-uCMZBBV6F5-66" value="id_lokaliazcja" style="shape=partialRectangle;overflow=hidden;connectable=0;fillColor=#60a917;top=0;left=0;bottom=0;right=0;align=left;spacingLeft=6;fontStyle=5;strokeColor=#2D7600;fontColor=#ffffff;" parent="Ke3Zf-WkF-uCMZBBV6F5-64" vertex="1">
          <mxGeometry x="30" width="220" height="30" as="geometry">
            <mxRectangle width="220" height="30" as="alternateBounds" />
          </mxGeometry>
        </mxCell>
        <mxCell id="Ke3Zf-WkF-uCMZBBV6F5-67" value="" style="shape=partialRectangle;collapsible=0;dropTarget=0;pointerEvents=0;fillColor=#60a917;points=[[0,0.5],[1,0.5]];portConstraint=eastwest;top=0;left=0;right=0;bottom=0;strokeColor=#2D7600;fontColor=#ffffff;" parent="Ke3Zf-WkF-uCMZBBV6F5-63" vertex="1">
          <mxGeometry y="60" width="250" height="30" as="geometry" />
        </mxCell>
        <mxCell id="Ke3Zf-WkF-uCMZBBV6F5-68" value="" style="shape=partialRectangle;overflow=hidden;connectable=0;fillColor=#60a917;top=0;left=0;bottom=0;right=0;strokeColor=#2D7600;fontColor=#ffffff;" parent="Ke3Zf-WkF-uCMZBBV6F5-67" vertex="1">
          <mxGeometry width="30" height="30" as="geometry">
            <mxRectangle width="30" height="30" as="alternateBounds" />
          </mxGeometry>
        </mxCell>
        <mxCell id="Ke3Zf-WkF-uCMZBBV6F5-69" value="Numer Budynku" style="shape=partialRectangle;overflow=hidden;connectable=0;fillColor=#60a917;top=0;left=0;bottom=0;right=0;align=left;spacingLeft=6;strokeColor=#2D7600;fontColor=#ffffff;" parent="Ke3Zf-WkF-uCMZBBV6F5-67" vertex="1">
          <mxGeometry x="30" width="220" height="30" as="geometry">
            <mxRectangle width="220" height="30" as="alternateBounds" />
          </mxGeometry>
        </mxCell>
        <mxCell id="Ke3Zf-WkF-uCMZBBV6F5-70" style="shape=partialRectangle;collapsible=0;dropTarget=0;pointerEvents=0;fillColor=#60a917;points=[[0,0.5],[1,0.5]];portConstraint=eastwest;top=0;left=0;right=0;bottom=0;strokeColor=#2D7600;fontColor=#ffffff;" parent="Ke3Zf-WkF-uCMZBBV6F5-63" vertex="1">
          <mxGeometry y="90" width="250" height="30" as="geometry" />
        </mxCell>
        <mxCell id="Ke3Zf-WkF-uCMZBBV6F5-71" style="shape=partialRectangle;overflow=hidden;connectable=0;fillColor=#60a917;top=0;left=0;bottom=0;right=0;strokeColor=#2D7600;fontColor=#ffffff;" parent="Ke3Zf-WkF-uCMZBBV6F5-70" vertex="1">
          <mxGeometry width="30" height="30" as="geometry">
            <mxRectangle width="30" height="30" as="alternateBounds" />
          </mxGeometry>
        </mxCell>
        <mxCell id="Ke3Zf-WkF-uCMZBBV6F5-72" value="Ulica" style="shape=partialRectangle;overflow=hidden;connectable=0;fillColor=#60a917;top=0;left=0;bottom=0;right=0;align=left;spacingLeft=6;strokeColor=#2D7600;fontColor=#ffffff;" parent="Ke3Zf-WkF-uCMZBBV6F5-70" vertex="1">
          <mxGeometry x="30" width="220" height="30" as="geometry">
            <mxRectangle width="220" height="30" as="alternateBounds" />
          </mxGeometry>
        </mxCell>
        <mxCell id="Ke3Zf-WkF-uCMZBBV6F5-73" style="shape=partialRectangle;collapsible=0;dropTarget=0;pointerEvents=0;fillColor=#60a917;points=[[0,0.5],[1,0.5]];portConstraint=eastwest;top=0;left=0;right=0;bottom=0;strokeColor=#2D7600;fontColor=#ffffff;" parent="Ke3Zf-WkF-uCMZBBV6F5-63" vertex="1">
          <mxGeometry y="120" width="250" height="30" as="geometry" />
        </mxCell>
        <mxCell id="Ke3Zf-WkF-uCMZBBV6F5-74" style="shape=partialRectangle;overflow=hidden;connectable=0;fillColor=#60a917;top=0;left=0;bottom=0;right=0;strokeColor=#2D7600;fontColor=#ffffff;" parent="Ke3Zf-WkF-uCMZBBV6F5-73" vertex="1">
          <mxGeometry width="30" height="30" as="geometry">
            <mxRectangle width="30" height="30" as="alternateBounds" />
          </mxGeometry>
        </mxCell>
        <mxCell id="Ke3Zf-WkF-uCMZBBV6F5-75" value="Miasto" style="shape=partialRectangle;overflow=hidden;connectable=0;fillColor=#60a917;top=0;left=0;bottom=0;right=0;align=left;spacingLeft=6;strokeColor=#2D7600;fontColor=#ffffff;" parent="Ke3Zf-WkF-uCMZBBV6F5-73" vertex="1">
          <mxGeometry x="30" width="220" height="30" as="geometry">
            <mxRectangle width="220" height="30" as="alternateBounds" />
          </mxGeometry>
        </mxCell>
        <mxCell id="Ke3Zf-WkF-uCMZBBV6F5-76" style="shape=partialRectangle;collapsible=0;dropTarget=0;pointerEvents=0;fillColor=#60a917;points=[[0,0.5],[1,0.5]];portConstraint=eastwest;top=0;left=0;right=0;bottom=0;strokeColor=#2D7600;fontColor=#ffffff;" parent="Ke3Zf-WkF-uCMZBBV6F5-63" vertex="1">
          <mxGeometry y="150" width="250" height="30" as="geometry" />
        </mxCell>
        <mxCell id="Ke3Zf-WkF-uCMZBBV6F5-77" style="shape=partialRectangle;overflow=hidden;connectable=0;fillColor=#60a917;top=0;left=0;bottom=0;right=0;strokeColor=#2D7600;fontColor=#ffffff;" parent="Ke3Zf-WkF-uCMZBBV6F5-76" vertex="1">
          <mxGeometry width="30" height="30" as="geometry">
            <mxRectangle width="30" height="30" as="alternateBounds" />
          </mxGeometry>
        </mxCell>
        <mxCell id="Ke3Zf-WkF-uCMZBBV6F5-78" value="Kod pocztowy" style="shape=partialRectangle;overflow=hidden;connectable=0;fillColor=#60a917;top=0;left=0;bottom=0;right=0;align=left;spacingLeft=6;strokeColor=#2D7600;fontColor=#ffffff;" parent="Ke3Zf-WkF-uCMZBBV6F5-76" vertex="1">
          <mxGeometry x="30" width="220" height="30" as="geometry">
            <mxRectangle width="220" height="30" as="alternateBounds" />
          </mxGeometry>
        </mxCell>
        <mxCell id="Ke3Zf-WkF-uCMZBBV6F5-79" style="shape=partialRectangle;collapsible=0;dropTarget=0;pointerEvents=0;fillColor=#60a917;points=[[0,0.5],[1,0.5]];portConstraint=eastwest;top=0;left=0;right=0;bottom=0;strokeColor=#2D7600;fontColor=#ffffff;" parent="Ke3Zf-WkF-uCMZBBV6F5-63" vertex="1">
          <mxGeometry y="180" width="250" height="30" as="geometry" />
        </mxCell>
        <mxCell id="Ke3Zf-WkF-uCMZBBV6F5-80" style="shape=partialRectangle;overflow=hidden;connectable=0;fillColor=#60a917;top=0;left=0;bottom=0;right=0;strokeColor=#2D7600;fontColor=#ffffff;" parent="Ke3Zf-WkF-uCMZBBV6F5-79" vertex="1">
          <mxGeometry width="30" height="30" as="geometry">
            <mxRectangle width="30" height="30" as="alternateBounds" />
          </mxGeometry>
        </mxCell>
        <mxCell id="Ke3Zf-WkF-uCMZBBV6F5-81" value="Kraj" style="shape=partialRectangle;overflow=hidden;connectable=0;fillColor=#60a917;top=0;left=0;bottom=0;right=0;align=left;spacingLeft=6;strokeColor=#2D7600;fontColor=#ffffff;" parent="Ke3Zf-WkF-uCMZBBV6F5-79" vertex="1">
          <mxGeometry x="30" width="220" height="30" as="geometry">
            <mxRectangle width="220" height="30" as="alternateBounds" />
          </mxGeometry>
        </mxCell>
        <mxCell id="Ke3Zf-WkF-uCMZBBV6F5-82" style="edgeStyle=orthogonalEdgeStyle;rounded=0;orthogonalLoop=1;jettySize=auto;html=1;exitX=1;exitY=0.5;exitDx=0;exitDy=0;entryX=0;entryY=0.5;entryDx=0;entryDy=0;fillColor=#60a917;strokeColor=#2D7600;" parent="1" source="Ke3Zf-WkF-uCMZBBV6F5-64" target="Ke3Zf-WkF-uCMZBBV6F5-24" edge="1">
          <mxGeometry relative="1" as="geometry" />
        </mxCell>
        <mxCell id="Ke3Zf-WkF-uCMZBBV6F5-83" value="DziaÅ‚y" style="shape=table;startSize=30;container=1;collapsible=1;childLayout=tableLayout;fixedRows=1;rowLines=0;fontStyle=1;align=center;resizeLast=1;fillColor=#60a917;strokeColor=#2D7600;fontColor=#ffffff;" parent="1" vertex="1">
          <mxGeometry x="10" y="470" width="250" height="100" as="geometry" />
        </mxCell>
        <mxCell id="Ke3Zf-WkF-uCMZBBV6F5-84" value="" style="shape=partialRectangle;collapsible=0;dropTarget=0;pointerEvents=0;fillColor=#60a917;points=[[0,0.5],[1,0.5]];portConstraint=eastwest;top=0;left=0;right=0;bottom=1;strokeColor=#2D7600;fontColor=#ffffff;" parent="Ke3Zf-WkF-uCMZBBV6F5-83" vertex="1">
          <mxGeometry y="30" width="250" height="30" as="geometry" />
        </mxCell>
        <mxCell id="Ke3Zf-WkF-uCMZBBV6F5-85" value="PK" style="shape=partialRectangle;overflow=hidden;connectable=0;fillColor=#60a917;top=0;left=0;bottom=0;right=0;fontStyle=1;strokeColor=#2D7600;fontColor=#ffffff;" parent="Ke3Zf-WkF-uCMZBBV6F5-84" vertex="1">
          <mxGeometry width="30" height="30" as="geometry">
            <mxRectangle width="30" height="30" as="alternateBounds" />
          </mxGeometry>
        </mxCell>
        <mxCell id="Ke3Zf-WkF-uCMZBBV6F5-86" value="id_dziaÅ‚" style="shape=partialRectangle;overflow=hidden;connectable=0;fillColor=#60a917;top=0;left=0;bottom=0;right=0;align=left;spacingLeft=6;fontStyle=5;strokeColor=#2D7600;fontColor=#ffffff;" parent="Ke3Zf-WkF-uCMZBBV6F5-84" vertex="1">
          <mxGeometry x="30" width="220" height="30" as="geometry">
            <mxRectangle width="220" height="30" as="alternateBounds" />
          </mxGeometry>
        </mxCell>
        <mxCell id="Ke3Zf-WkF-uCMZBBV6F5-90" style="shape=partialRectangle;collapsible=0;dropTarget=0;pointerEvents=0;fillColor=#60a917;points=[[0,0.5],[1,0.5]];portConstraint=eastwest;top=0;left=0;right=0;bottom=0;strokeColor=#2D7600;fontColor=#ffffff;" parent="Ke3Zf-WkF-uCMZBBV6F5-83" vertex="1">
          <mxGeometry y="60" width="250" height="30" as="geometry" />
        </mxCell>
        <mxCell id="Ke3Zf-WkF-uCMZBBV6F5-91" style="shape=partialRectangle;overflow=hidden;connectable=0;fillColor=#60a917;top=0;left=0;bottom=0;right=0;strokeColor=#2D7600;fontColor=#ffffff;" parent="Ke3Zf-WkF-uCMZBBV6F5-90" vertex="1">
          <mxGeometry width="30" height="30" as="geometry">
            <mxRectangle width="30" height="30" as="alternateBounds" />
          </mxGeometry>
        </mxCell>
        <mxCell id="Ke3Zf-WkF-uCMZBBV6F5-92" value="nazwa dziaÅ‚u" style="shape=partialRectangle;overflow=hidden;connectable=0;fillColor=#60a917;top=0;left=0;bottom=0;right=0;align=left;spacingLeft=6;strokeColor=#2D7600;fontColor=#ffffff;" parent="Ke3Zf-WkF-uCMZBBV6F5-90" vertex="1">
          <mxGeometry x="30" width="220" height="30" as="geometry">
            <mxRectangle width="220" height="30" as="alternateBounds" />
          </mxGeometry>
        </mxCell>
        <mxCell id="Ke3Zf-WkF-uCMZBBV6F5-102" style="edgeStyle=orthogonalEdgeStyle;rounded=0;orthogonalLoop=1;jettySize=auto;html=1;exitX=1;exitY=0.5;exitDx=0;exitDy=0;entryX=0;entryY=0.5;entryDx=0;entryDy=0;fillColor=#60a917;strokeColor=#2D7600;" parent="1" source="Ke3Zf-WkF-uCMZBBV6F5-84" target="Ke3Zf-WkF-uCMZBBV6F5-27" edge="1">
          <mxGeometry relative="1" as="geometry" />
        </mxCell>
        <mxCell id="Ke3Zf-WkF-uCMZBBV6F5-103" value="Samochody" style="shape=table;startSize=30;container=1;collapsible=1;childLayout=tableLayout;fixedRows=1;rowLines=0;fontStyle=1;align=center;resizeLast=1;fillColor=#60a917;strokeColor=#2D7600;fontColor=#ffffff;" parent="1" vertex="1">
          <mxGeometry x="10" y="580" width="250" height="340" as="geometry" />
        </mxCell>
        <mxCell id="Ke3Zf-WkF-uCMZBBV6F5-104" value="" style="shape=partialRectangle;collapsible=0;dropTarget=0;pointerEvents=0;fillColor=#60a917;points=[[0,0.5],[1,0.5]];portConstraint=eastwest;top=0;left=0;right=0;bottom=1;strokeColor=#2D7600;fontColor=#ffffff;" parent="Ke3Zf-WkF-uCMZBBV6F5-103" vertex="1">
          <mxGeometry y="30" width="250" height="30" as="geometry" />
        </mxCell>
        <mxCell id="Ke3Zf-WkF-uCMZBBV6F5-105" value="PK" style="shape=partialRectangle;overflow=hidden;connectable=0;fillColor=#60a917;top=0;left=0;bottom=0;right=0;fontStyle=1;strokeColor=#2D7600;fontColor=#ffffff;" parent="Ke3Zf-WkF-uCMZBBV6F5-104" vertex="1">
          <mxGeometry width="30" height="30" as="geometry">
            <mxRectangle width="30" height="30" as="alternateBounds" />
          </mxGeometry>
        </mxCell>
        <mxCell id="Ke3Zf-WkF-uCMZBBV6F5-106" value="id_samochÃ³d" style="shape=partialRectangle;overflow=hidden;connectable=0;fillColor=#60a917;top=0;left=0;bottom=0;right=0;align=left;spacingLeft=6;fontStyle=5;strokeColor=#2D7600;fontColor=#ffffff;" parent="Ke3Zf-WkF-uCMZBBV6F5-104" vertex="1">
          <mxGeometry x="30" width="220" height="30" as="geometry">
            <mxRectangle width="220" height="30" as="alternateBounds" />
          </mxGeometry>
        </mxCell>
        <mxCell id="Ke3Zf-WkF-uCMZBBV6F5-107" style="shape=partialRectangle;collapsible=0;dropTarget=0;pointerEvents=0;fillColor=#60a917;points=[[0,0.5],[1,0.5]];portConstraint=eastwest;top=0;left=0;right=0;bottom=0;strokeColor=#2D7600;fontColor=#ffffff;" parent="Ke3Zf-WkF-uCMZBBV6F5-103" vertex="1">
          <mxGeometry y="60" width="250" height="30" as="geometry" />
        </mxCell>
        <mxCell id="Ke3Zf-WkF-uCMZBBV6F5-108" style="shape=partialRectangle;overflow=hidden;connectable=0;fillColor=#60a917;top=0;left=0;bottom=0;right=0;strokeColor=#2D7600;fontColor=#ffffff;" parent="Ke3Zf-WkF-uCMZBBV6F5-107" vertex="1">
          <mxGeometry width="30" height="30" as="geometry">
            <mxRectangle width="30" height="30" as="alternateBounds" />
          </mxGeometry>
        </mxCell>
        <mxCell id="Ke3Zf-WkF-uCMZBBV6F5-109" value="marka" style="shape=partialRectangle;overflow=hidden;connectable=0;fillColor=#60a917;top=0;left=0;bottom=0;right=0;align=left;spacingLeft=6;strokeColor=#2D7600;fontColor=#ffffff;" parent="Ke3Zf-WkF-uCMZBBV6F5-107" vertex="1">
          <mxGeometry x="30" width="220" height="30" as="geometry">
            <mxRectangle width="220" height="30" as="alternateBounds" />
          </mxGeometry>
        </mxCell>
        <mxCell id="Ke3Zf-WkF-uCMZBBV6F5-110" style="shape=partialRectangle;collapsible=0;dropTarget=0;pointerEvents=0;fillColor=#60a917;points=[[0,0.5],[1,0.5]];portConstraint=eastwest;top=0;left=0;right=0;bottom=0;strokeColor=#2D7600;fontColor=#ffffff;" parent="Ke3Zf-WkF-uCMZBBV6F5-103" vertex="1">
          <mxGeometry y="90" width="250" height="30" as="geometry" />
        </mxCell>
        <mxCell id="Ke3Zf-WkF-uCMZBBV6F5-111" style="shape=partialRectangle;overflow=hidden;connectable=0;fillColor=#60a917;top=0;left=0;bottom=0;right=0;strokeColor=#2D7600;fontColor=#ffffff;" parent="Ke3Zf-WkF-uCMZBBV6F5-110" vertex="1">
          <mxGeometry width="30" height="30" as="geometry">
            <mxRectangle width="30" height="30" as="alternateBounds" />
          </mxGeometry>
        </mxCell>
        <mxCell id="Ke3Zf-WkF-uCMZBBV6F5-112" value="model" style="shape=partialRectangle;overflow=hidden;connectable=0;fillColor=#60a917;top=0;left=0;bottom=0;right=0;align=left;spacingLeft=6;strokeColor=#2D7600;fontColor=#ffffff;" parent="Ke3Zf-WkF-uCMZBBV6F5-110" vertex="1">
          <mxGeometry x="30" width="220" height="30" as="geometry">
            <mxRectangle width="220" height="30" as="alternateBounds" />
          </mxGeometry>
        </mxCell>
        <mxCell id="Ke3Zf-WkF-uCMZBBV6F5-113" style="shape=partialRectangle;collapsible=0;dropTarget=0;pointerEvents=0;fillColor=#60a917;points=[[0,0.5],[1,0.5]];portConstraint=eastwest;top=0;left=0;right=0;bottom=0;strokeColor=#2D7600;fontColor=#ffffff;" parent="Ke3Zf-WkF-uCMZBBV6F5-103" vertex="1">
          <mxGeometry y="120" width="250" height="30" as="geometry" />
        </mxCell>
        <mxCell id="Ke3Zf-WkF-uCMZBBV6F5-114" style="shape=partialRectangle;overflow=hidden;connectable=0;fillColor=#60a917;top=0;left=0;bottom=0;right=0;strokeColor=#2D7600;fontColor=#ffffff;" parent="Ke3Zf-WkF-uCMZBBV6F5-113" vertex="1">
          <mxGeometry width="30" height="30" as="geometry">
            <mxRectangle width="30" height="30" as="alternateBounds" />
          </mxGeometry>
        </mxCell>
        <mxCell id="Ke3Zf-WkF-uCMZBBV6F5-115" value="rok_produkcji" style="shape=partialRectangle;overflow=hidden;connectable=0;fillColor=#60a917;top=0;left=0;bottom=0;right=0;align=left;spacingLeft=6;strokeColor=#2D7600;fontColor=#ffffff;" parent="Ke3Zf-WkF-uCMZBBV6F5-113" vertex="1">
          <mxGeometry x="30" width="220" height="30" as="geometry">
            <mxRectangle width="220" height="30" as="alternateBounds" />
          </mxGeometry>
        </mxCell>
        <mxCell id="Ke3Zf-WkF-uCMZBBV6F5-116" style="shape=partialRectangle;collapsible=0;dropTarget=0;pointerEvents=0;fillColor=#60a917;points=[[0,0.5],[1,0.5]];portConstraint=eastwest;top=0;left=0;right=0;bottom=0;strokeColor=#2D7600;fontColor=#ffffff;" parent="Ke3Zf-WkF-uCMZBBV6F5-103" vertex="1">
          <mxGeometry y="150" width="250" height="30" as="geometry" />
        </mxCell>
        <mxCell id="Ke3Zf-WkF-uCMZBBV6F5-117" style="shape=partialRectangle;overflow=hidden;connectable=0;fillColor=#60a917;top=0;left=0;bottom=0;right=0;strokeColor=#2D7600;fontColor=#ffffff;" parent="Ke3Zf-WkF-uCMZBBV6F5-116" vertex="1">
          <mxGeometry width="30" height="30" as="geometry">
            <mxRectangle width="30" height="30" as="alternateBounds" />
          </mxGeometry>
        </mxCell>
        <mxCell id="Ke3Zf-WkF-uCMZBBV6F5-118" value="kolor" style="shape=partialRectangle;overflow=hidden;connectable=0;fillColor=#60a917;top=0;left=0;bottom=0;right=0;align=left;spacingLeft=6;strokeColor=#2D7600;fontColor=#ffffff;" parent="Ke3Zf-WkF-uCMZBBV6F5-116" vertex="1">
          <mxGeometry x="30" width="220" height="30" as="geometry">
            <mxRectangle width="220" height="30" as="alternateBounds" />
          </mxGeometry>
        </mxCell>
        <mxCell id="Ke3Zf-WkF-uCMZBBV6F5-119" style="shape=partialRectangle;collapsible=0;dropTarget=0;pointerEvents=0;fillColor=#60a917;points=[[0,0.5],[1,0.5]];portConstraint=eastwest;top=0;left=0;right=0;bottom=0;strokeColor=#2D7600;fontColor=#ffffff;" parent="Ke3Zf-WkF-uCMZBBV6F5-103" vertex="1">
          <mxGeometry y="180" width="250" height="30" as="geometry" />
        </mxCell>
        <mxCell id="Ke3Zf-WkF-uCMZBBV6F5-120" style="shape=partialRectangle;overflow=hidden;connectable=0;fillColor=#60a917;top=0;left=0;bottom=0;right=0;strokeColor=#2D7600;fontColor=#ffffff;" parent="Ke3Zf-WkF-uCMZBBV6F5-119" vertex="1">
          <mxGeometry width="30" height="30" as="geometry">
            <mxRectangle width="30" height="30" as="alternateBounds" />
          </mxGeometry>
        </mxCell>
        <mxCell id="Ke3Zf-WkF-uCMZBBV6F5-121" value="przebieg" style="shape=partialRectangle;overflow=hidden;connectable=0;fillColor=#60a917;top=0;left=0;bottom=0;right=0;align=left;spacingLeft=6;strokeColor=#2D7600;fontColor=#ffffff;" parent="Ke3Zf-WkF-uCMZBBV6F5-119" vertex="1">
          <mxGeometry x="30" width="220" height="30" as="geometry">
            <mxRectangle width="220" height="30" as="alternateBounds" />
          </mxGeometry>
        </mxCell>
        <mxCell id="Ke3Zf-WkF-uCMZBBV6F5-134" style="shape=partialRectangle;collapsible=0;dropTarget=0;pointerEvents=0;fillColor=#60a917;points=[[0,0.5],[1,0.5]];portConstraint=eastwest;top=0;left=0;right=0;bottom=0;strokeColor=#2D7600;fontColor=#ffffff;" parent="Ke3Zf-WkF-uCMZBBV6F5-103" vertex="1">
          <mxGeometry y="210" width="250" height="30" as="geometry" />
        </mxCell>
        <mxCell id="Ke3Zf-WkF-uCMZBBV6F5-135" style="shape=partialRectangle;overflow=hidden;connectable=0;fillColor=#60a917;top=0;left=0;bottom=0;right=0;strokeColor=#2D7600;fontColor=#ffffff;" parent="Ke3Zf-WkF-uCMZBBV6F5-134" vertex="1">
          <mxGeometry width="30" height="30" as="geometry">
            <mxRectangle width="30" height="30" as="alternateBounds" />
          </mxGeometry>
        </mxCell>
        <mxCell id="Ke3Zf-WkF-uCMZBBV6F5-136" value="pojemnoÅ›Ä‡_silnika" style="shape=partialRectangle;overflow=hidden;connectable=0;fillColor=#60a917;top=0;left=0;bottom=0;right=0;align=left;spacingLeft=6;strokeColor=#2D7600;fontColor=#ffffff;" parent="Ke3Zf-WkF-uCMZBBV6F5-134" vertex="1">
          <mxGeometry x="30" width="220" height="30" as="geometry">
            <mxRectangle width="220" height="30" as="alternateBounds" />
          </mxGeometry>
        </mxCell>
        <mxCell id="Ke3Zf-WkF-uCMZBBV6F5-131" style="shape=partialRectangle;collapsible=0;dropTarget=0;pointerEvents=0;fillColor=#60a917;points=[[0,0.5],[1,0.5]];portConstraint=eastwest;top=0;left=0;right=0;bottom=0;strokeColor=#2D7600;fontColor=#ffffff;" parent="Ke3Zf-WkF-uCMZBBV6F5-103" vertex="1">
          <mxGeometry y="240" width="250" height="30" as="geometry" />
        </mxCell>
        <mxCell id="Ke3Zf-WkF-uCMZBBV6F5-132" style="shape=partialRectangle;overflow=hidden;connectable=0;fillColor=#60a917;top=0;left=0;bottom=0;right=0;strokeColor=#2D7600;fontColor=#ffffff;" parent="Ke3Zf-WkF-uCMZBBV6F5-131" vertex="1">
          <mxGeometry width="30" height="30" as="geometry">
            <mxRectangle width="30" height="30" as="alternateBounds" />
          </mxGeometry>
        </mxCell>
        <mxCell id="Ke3Zf-WkF-uCMZBBV6F5-133" value="moc" style="shape=partialRectangle;overflow=hidden;connectable=0;fillColor=#60a917;top=0;left=0;bottom=0;right=0;align=left;spacingLeft=6;strokeColor=#2D7600;fontColor=#ffffff;" parent="Ke3Zf-WkF-uCMZBBV6F5-131" vertex="1">
          <mxGeometry x="30" width="220" height="30" as="geometry">
            <mxRectangle width="220" height="30" as="alternateBounds" />
          </mxGeometry>
        </mxCell>
        <mxCell id="Ke3Zf-WkF-uCMZBBV6F5-128" style="shape=partialRectangle;collapsible=0;dropTarget=0;pointerEvents=0;fillColor=#60a917;points=[[0,0.5],[1,0.5]];portConstraint=eastwest;top=0;left=0;right=0;bottom=0;strokeColor=#2D7600;fontColor=#ffffff;" parent="Ke3Zf-WkF-uCMZBBV6F5-103" vertex="1">
          <mxGeometry y="270" width="250" height="30" as="geometry" />
        </mxCell>
        <mxCell id="Ke3Zf-WkF-uCMZBBV6F5-129" value="FK" style="shape=partialRectangle;overflow=hidden;connectable=0;fillColor=#60a917;top=0;left=0;bottom=0;right=0;strokeColor=#2D7600;fontColor=#ffffff;" parent="Ke3Zf-WkF-uCMZBBV6F5-128" vertex="1">
          <mxGeometry width="30" height="30" as="geometry">
            <mxRectangle width="30" height="30" as="alternateBounds" />
          </mxGeometry>
        </mxCell>
        <mxCell id="Ke3Zf-WkF-uCMZBBV6F5-130" value="id_typ_paliwa" style="shape=partialRectangle;overflow=hidden;connectable=0;fillColor=#60a917;top=0;left=0;bottom=0;right=0;align=left;spacingLeft=6;strokeColor=#2D7600;fontColor=#ffffff;" parent="Ke3Zf-WkF-uCMZBBV6F5-128" vertex="1">
          <mxGeometry x="30" width="220" height="30" as="geometry">
            <mxRectangle width="220" height="30" as="alternateBounds" />
          </mxGeometry>
        </mxCell>
        <mxCell id="Ke3Zf-WkF-uCMZBBV6F5-125" style="shape=partialRectangle;collapsible=0;dropTarget=0;pointerEvents=0;fillColor=#60a917;points=[[0,0.5],[1,0.5]];portConstraint=eastwest;top=0;left=0;right=0;bottom=0;strokeColor=#2D7600;fontColor=#ffffff;" parent="Ke3Zf-WkF-uCMZBBV6F5-103" vertex="1">
          <mxGeometry y="300" width="250" height="30" as="geometry" />
        </mxCell>
        <mxCell id="Ke3Zf-WkF-uCMZBBV6F5-126" style="shape=partialRectangle;overflow=hidden;connectable=0;fillColor=#60a917;top=0;left=0;bottom=0;right=0;strokeColor=#2D7600;fontColor=#ffffff;" parent="Ke3Zf-WkF-uCMZBBV6F5-125" vertex="1">
          <mxGeometry width="30" height="30" as="geometry">
            <mxRectangle width="30" height="30" as="alternateBounds" />
          </mxGeometry>
        </mxCell>
        <mxCell id="Ke3Zf-WkF-uCMZBBV6F5-127" value="numer VIN" style="shape=partialRectangle;overflow=hidden;connectable=0;fillColor=#60a917;top=0;left=0;bottom=0;right=0;align=left;spacingLeft=6;strokeColor=#2D7600;fontColor=#ffffff;" parent="Ke3Zf-WkF-uCMZBBV6F5-125" vertex="1">
          <mxGeometry x="30" width="220" height="30" as="geometry">
            <mxRectangle width="220" height="30" as="alternateBounds" />
          </mxGeometry>
        </mxCell>
        <mxCell id="Ke3Zf-WkF-uCMZBBV6F5-137" style="edgeStyle=orthogonalEdgeStyle;rounded=0;orthogonalLoop=1;jettySize=auto;html=1;exitX=1;exitY=0.5;exitDx=0;exitDy=0;entryX=0;entryY=0.5;entryDx=0;entryDy=0;fillColor=#60a917;strokeColor=#2D7600;" parent="1" source="Ke3Zf-WkF-uCMZBBV6F5-104" target="Ke3Zf-WkF-uCMZBBV6F5-45" edge="1">
          <mxGeometry relative="1" as="geometry">
            <Array as="points">
              <mxPoint x="320" y="625" />
              <mxPoint x="320" y="455" />
            </Array>
          </mxGeometry>
        </mxCell>
        <mxCell id="KKkE_Qui8zbe5Bdun0iC-23" value="Klienci" style="shape=table;startSize=30;container=1;collapsible=1;childLayout=tableLayout;fixedRows=1;rowLines=0;fontStyle=1;align=center;resizeLast=1;fillColor=#e51400;strokeColor=#B20000;fontColor=#ffffff;" parent="1" vertex="1">
          <mxGeometry x="660" y="160" width="250" height="250" as="geometry" />
        </mxCell>
        <mxCell id="KKkE_Qui8zbe5Bdun0iC-24" value="" style="shape=partialRectangle;collapsible=0;dropTarget=0;pointerEvents=0;fillColor=#e51400;points=[[0,0.5],[1,0.5]];portConstraint=eastwest;top=0;left=0;right=0;bottom=1;strokeColor=#B20000;fontColor=#ffffff;" parent="KKkE_Qui8zbe5Bdun0iC-23" vertex="1">
          <mxGeometry y="30" width="250" height="30" as="geometry" />
        </mxCell>
        <mxCell id="KKkE_Qui8zbe5Bdun0iC-25" value="PK" style="shape=partialRectangle;overflow=hidden;connectable=0;fillColor=#e51400;top=0;left=0;bottom=0;right=0;fontStyle=1;strokeColor=#B20000;fontColor=#ffffff;" parent="KKkE_Qui8zbe5Bdun0iC-24" vertex="1">
          <mxGeometry width="30" height="30" as="geometry">
            <mxRectangle width="30" height="30" as="alternateBounds" />
          </mxGeometry>
        </mxCell>
        <mxCell id="KKkE_Qui8zbe5Bdun0iC-26" value="id_klient" style="shape=partialRectangle;overflow=hidden;connectable=0;fillColor=#e51400;top=0;left=0;bottom=0;right=0;align=left;spacingLeft=6;fontStyle=5;strokeColor=#B20000;fontColor=#ffffff;" parent="KKkE_Qui8zbe5Bdun0iC-24" vertex="1">
          <mxGeometry x="30" width="220" height="30" as="geometry">
            <mxRectangle width="220" height="30" as="alternateBounds" />
          </mxGeometry>
        </mxCell>
        <mxCell id="KKkE_Qui8zbe5Bdun0iC-27" value="" style="shape=partialRectangle;collapsible=0;dropTarget=0;pointerEvents=0;fillColor=#e51400;points=[[0,0.5],[1,0.5]];portConstraint=eastwest;top=0;left=0;right=0;bottom=0;strokeColor=#B20000;fontColor=#ffffff;" parent="KKkE_Qui8zbe5Bdun0iC-23" vertex="1">
          <mxGeometry y="60" width="250" height="30" as="geometry" />
        </mxCell>
        <mxCell id="KKkE_Qui8zbe5Bdun0iC-28" value="" style="shape=partialRectangle;overflow=hidden;connectable=0;fillColor=#e51400;top=0;left=0;bottom=0;right=0;strokeColor=#B20000;fontColor=#ffffff;" parent="KKkE_Qui8zbe5Bdun0iC-27" vertex="1">
          <mxGeometry width="30" height="30" as="geometry">
            <mxRectangle width="30" height="30" as="alternateBounds" />
          </mxGeometry>
        </mxCell>
        <mxCell id="KKkE_Qui8zbe5Bdun0iC-29" value="ImiÄ™" style="shape=partialRectangle;overflow=hidden;connectable=0;fillColor=#e51400;top=0;left=0;bottom=0;right=0;align=left;spacingLeft=6;strokeColor=#B20000;fontColor=#ffffff;" parent="KKkE_Qui8zbe5Bdun0iC-27" vertex="1">
          <mxGeometry x="30" width="220" height="30" as="geometry">
            <mxRectangle width="220" height="30" as="alternateBounds" />
          </mxGeometry>
        </mxCell>
        <mxCell id="KKkE_Qui8zbe5Bdun0iC-30" style="shape=partialRectangle;collapsible=0;dropTarget=0;pointerEvents=0;fillColor=#e51400;points=[[0,0.5],[1,0.5]];portConstraint=eastwest;top=0;left=0;right=0;bottom=0;strokeColor=#B20000;fontColor=#ffffff;" parent="KKkE_Qui8zbe5Bdun0iC-23" vertex="1">
          <mxGeometry y="90" width="250" height="30" as="geometry" />
        </mxCell>
        <mxCell id="KKkE_Qui8zbe5Bdun0iC-31" style="shape=partialRectangle;overflow=hidden;connectable=0;fillColor=#e51400;top=0;left=0;bottom=0;right=0;strokeColor=#B20000;fontColor=#ffffff;" parent="KKkE_Qui8zbe5Bdun0iC-30" vertex="1">
          <mxGeometry width="30" height="30" as="geometry">
            <mxRectangle width="30" height="30" as="alternateBounds" />
          </mxGeometry>
        </mxCell>
        <mxCell id="KKkE_Qui8zbe5Bdun0iC-32" value="nazwisko" style="shape=partialRectangle;overflow=hidden;connectable=0;fillColor=#e51400;top=0;left=0;bottom=0;right=0;align=left;spacingLeft=6;strokeColor=#B20000;fontColor=#ffffff;" parent="KKkE_Qui8zbe5Bdun0iC-30" vertex="1">
          <mxGeometry x="30" width="220" height="30" as="geometry">
            <mxRectangle width="220" height="30" as="alternateBounds" />
          </mxGeometry>
        </mxCell>
        <mxCell id="7oopjlhwkVxLOMBjlkEH-1" style="shape=partialRectangle;collapsible=0;dropTarget=0;pointerEvents=0;fillColor=#e51400;points=[[0,0.5],[1,0.5]];portConstraint=eastwest;top=0;left=0;right=0;bottom=0;strokeColor=#B20000;fontColor=#ffffff;" parent="KKkE_Qui8zbe5Bdun0iC-23" vertex="1">
          <mxGeometry y="120" width="250" height="30" as="geometry" />
        </mxCell>
        <mxCell id="7oopjlhwkVxLOMBjlkEH-2" style="shape=partialRectangle;overflow=hidden;connectable=0;fillColor=#e51400;top=0;left=0;bottom=0;right=0;strokeColor=#B20000;fontColor=#ffffff;" parent="7oopjlhwkVxLOMBjlkEH-1" vertex="1">
          <mxGeometry width="30" height="30" as="geometry">
            <mxRectangle width="30" height="30" as="alternateBounds" />
          </mxGeometry>
        </mxCell>
        <mxCell id="7oopjlhwkVxLOMBjlkEH-3" value="nazwisko" style="shape=partialRectangle;overflow=hidden;connectable=0;fillColor=#e51400;top=0;left=0;bottom=0;right=0;align=left;spacingLeft=6;strokeColor=#B20000;fontColor=#ffffff;" parent="7oopjlhwkVxLOMBjlkEH-1" vertex="1">
          <mxGeometry x="30" width="220" height="30" as="geometry">
            <mxRectangle width="220" height="30" as="alternateBounds" />
          </mxGeometry>
        </mxCell>
        <mxCell id="KKkE_Qui8zbe5Bdun0iC-175" style="shape=partialRectangle;collapsible=0;dropTarget=0;pointerEvents=0;fillColor=#e51400;points=[[0,0.5],[1,0.5]];portConstraint=eastwest;top=0;left=0;right=0;bottom=0;strokeColor=#B20000;fontColor=#ffffff;" parent="KKkE_Qui8zbe5Bdun0iC-23" vertex="1">
          <mxGeometry y="150" width="250" height="30" as="geometry" />
        </mxCell>
        <mxCell id="KKkE_Qui8zbe5Bdun0iC-176" value="FK" style="shape=partialRectangle;overflow=hidden;connectable=0;fillColor=#e51400;top=0;left=0;bottom=0;right=0;strokeColor=#B20000;fontColor=#ffffff;" parent="KKkE_Qui8zbe5Bdun0iC-175" vertex="1">
          <mxGeometry width="30" height="30" as="geometry">
            <mxRectangle width="30" height="30" as="alternateBounds" />
          </mxGeometry>
        </mxCell>
        <mxCell id="KKkE_Qui8zbe5Bdun0iC-177" value="id_numer_kierunkowy" style="shape=partialRectangle;overflow=hidden;connectable=0;fillColor=#e51400;top=0;left=0;bottom=0;right=0;align=left;spacingLeft=6;strokeColor=#B20000;fontColor=#ffffff;" parent="KKkE_Qui8zbe5Bdun0iC-175" vertex="1">
          <mxGeometry x="30" width="220" height="30" as="geometry">
            <mxRectangle width="220" height="30" as="alternateBounds" />
          </mxGeometry>
        </mxCell>
        <mxCell id="KKkE_Qui8zbe5Bdun0iC-33" style="shape=partialRectangle;collapsible=0;dropTarget=0;pointerEvents=0;fillColor=#e51400;points=[[0,0.5],[1,0.5]];portConstraint=eastwest;top=0;left=0;right=0;bottom=0;strokeColor=#B20000;fontColor=#ffffff;" parent="KKkE_Qui8zbe5Bdun0iC-23" vertex="1">
          <mxGeometry y="180" width="250" height="30" as="geometry" />
        </mxCell>
        <mxCell id="KKkE_Qui8zbe5Bdun0iC-34" value="" style="shape=partialRectangle;overflow=hidden;connectable=0;fillColor=#e51400;top=0;left=0;bottom=0;right=0;strokeColor=#B20000;fontColor=#ffffff;" parent="KKkE_Qui8zbe5Bdun0iC-33" vertex="1">
          <mxGeometry width="30" height="30" as="geometry">
            <mxRectangle width="30" height="30" as="alternateBounds" />
          </mxGeometry>
        </mxCell>
        <mxCell id="KKkE_Qui8zbe5Bdun0iC-35" value="numer telefonu" style="shape=partialRectangle;overflow=hidden;connectable=0;fillColor=#e51400;top=0;left=0;bottom=0;right=0;align=left;spacingLeft=6;strokeColor=#B20000;fontColor=#ffffff;" parent="KKkE_Qui8zbe5Bdun0iC-33" vertex="1">
          <mxGeometry x="30" width="220" height="30" as="geometry">
            <mxRectangle width="220" height="30" as="alternateBounds" />
          </mxGeometry>
        </mxCell>
        <mxCell id="KKkE_Qui8zbe5Bdun0iC-36" style="shape=partialRectangle;collapsible=0;dropTarget=0;pointerEvents=0;fillColor=#e51400;points=[[0,0.5],[1,0.5]];portConstraint=eastwest;top=0;left=0;right=0;bottom=0;strokeColor=#B20000;fontColor=#ffffff;" parent="KKkE_Qui8zbe5Bdun0iC-23" vertex="1">
          <mxGeometry y="210" width="250" height="30" as="geometry" />
        </mxCell>
        <mxCell id="KKkE_Qui8zbe5Bdun0iC-37" style="shape=partialRectangle;overflow=hidden;connectable=0;fillColor=#e51400;top=0;left=0;bottom=0;right=0;strokeColor=#B20000;fontColor=#ffffff;" parent="KKkE_Qui8zbe5Bdun0iC-36" vertex="1">
          <mxGeometry width="30" height="30" as="geometry">
            <mxRectangle width="30" height="30" as="alternateBounds" />
          </mxGeometry>
        </mxCell>
        <mxCell id="KKkE_Qui8zbe5Bdun0iC-38" value="adres e-mail" style="shape=partialRectangle;overflow=hidden;connectable=0;fillColor=#e51400;top=0;left=0;bottom=0;right=0;align=left;spacingLeft=6;strokeColor=#B20000;fontColor=#ffffff;" parent="KKkE_Qui8zbe5Bdun0iC-36" vertex="1">
          <mxGeometry x="30" width="220" height="30" as="geometry">
            <mxRectangle width="220" height="30" as="alternateBounds" />
          </mxGeometry>
        </mxCell>
        <mxCell id="KKkE_Qui8zbe5Bdun0iC-71" value="Rabaty" style="shape=table;startSize=30;container=1;collapsible=1;childLayout=tableLayout;fixedRows=1;rowLines=0;fontStyle=1;align=center;resizeLast=1;fillColor=#fa6800;strokeColor=#C73500;fontColor=#000000;" parent="1" vertex="1">
          <mxGeometry x="10" y="930" width="250" height="100" as="geometry" />
        </mxCell>
        <mxCell id="KKkE_Qui8zbe5Bdun0iC-72" value="" style="shape=partialRectangle;collapsible=0;dropTarget=0;pointerEvents=0;fillColor=#fa6800;points=[[0,0.5],[1,0.5]];portConstraint=eastwest;top=0;left=0;right=0;bottom=1;strokeColor=#C73500;fontColor=#000000;" parent="KKkE_Qui8zbe5Bdun0iC-71" vertex="1">
          <mxGeometry y="30" width="250" height="30" as="geometry" />
        </mxCell>
        <mxCell id="KKkE_Qui8zbe5Bdun0iC-73" value="PK" style="shape=partialRectangle;overflow=hidden;connectable=0;fillColor=#fa6800;top=0;left=0;bottom=0;right=0;fontStyle=1;strokeColor=#C73500;fontColor=#000000;" parent="KKkE_Qui8zbe5Bdun0iC-72" vertex="1">
          <mxGeometry width="30" height="30" as="geometry">
            <mxRectangle width="30" height="30" as="alternateBounds" />
          </mxGeometry>
        </mxCell>
        <mxCell id="KKkE_Qui8zbe5Bdun0iC-74" value="id_rabat" style="shape=partialRectangle;overflow=hidden;connectable=0;fillColor=#fa6800;top=0;left=0;bottom=0;right=0;align=left;spacingLeft=6;fontStyle=5;strokeColor=#C73500;fontColor=#000000;" parent="KKkE_Qui8zbe5Bdun0iC-72" vertex="1">
          <mxGeometry x="30" width="220" height="30" as="geometry">
            <mxRectangle width="220" height="30" as="alternateBounds" />
          </mxGeometry>
        </mxCell>
        <mxCell id="KKkE_Qui8zbe5Bdun0iC-75" value="" style="shape=partialRectangle;collapsible=0;dropTarget=0;pointerEvents=0;fillColor=#fa6800;points=[[0,0.5],[1,0.5]];portConstraint=eastwest;top=0;left=0;right=0;bottom=0;strokeColor=#C73500;fontColor=#000000;" parent="KKkE_Qui8zbe5Bdun0iC-71" vertex="1">
          <mxGeometry y="60" width="250" height="30" as="geometry" />
        </mxCell>
        <mxCell id="KKkE_Qui8zbe5Bdun0iC-76" value="" style="shape=partialRectangle;overflow=hidden;connectable=0;fillColor=#fa6800;top=0;left=0;bottom=0;right=0;strokeColor=#C73500;fontColor=#000000;" parent="KKkE_Qui8zbe5Bdun0iC-75" vertex="1">
          <mxGeometry width="30" height="30" as="geometry">
            <mxRectangle width="30" height="30" as="alternateBounds" />
          </mxGeometry>
        </mxCell>
        <mxCell id="KKkE_Qui8zbe5Bdun0iC-77" value="wartoÅ›Ä‡ rabatu" style="shape=partialRectangle;overflow=hidden;connectable=0;fillColor=#fa6800;top=0;left=0;bottom=0;right=0;align=left;spacingLeft=6;strokeColor=#C73500;fontColor=#000000;" parent="KKkE_Qui8zbe5Bdun0iC-75" vertex="1">
          <mxGeometry x="30" width="220" height="30" as="geometry">
            <mxRectangle width="220" height="30" as="alternateBounds" />
          </mxGeometry>
        </mxCell>
        <mxCell id="KKkE_Qui8zbe5Bdun0iC-95" value="UsÅ‚ugi" style="shape=table;startSize=30;container=1;collapsible=1;childLayout=tableLayout;fixedRows=1;rowLines=0;fontStyle=1;align=center;resizeLast=1;fillColor=#0050ef;strokeColor=#001DBC;fontColor=#ffffff;" parent="1" vertex="1">
          <mxGeometry x="660" y="410" width="250" height="160" as="geometry" />
        </mxCell>
        <mxCell id="KKkE_Qui8zbe5Bdun0iC-96" value="" style="shape=partialRectangle;collapsible=0;dropTarget=0;pointerEvents=0;fillColor=#0050ef;points=[[0,0.5],[1,0.5]];portConstraint=eastwest;top=0;left=0;right=0;bottom=1;strokeColor=#001DBC;fontColor=#ffffff;" parent="KKkE_Qui8zbe5Bdun0iC-95" vertex="1">
          <mxGeometry y="30" width="250" height="30" as="geometry" />
        </mxCell>
        <mxCell id="KKkE_Qui8zbe5Bdun0iC-97" value="PK" style="shape=partialRectangle;overflow=hidden;connectable=0;fillColor=#0050ef;top=0;left=0;bottom=0;right=0;fontStyle=1;strokeColor=#001DBC;fontColor=#ffffff;" parent="KKkE_Qui8zbe5Bdun0iC-96" vertex="1">
          <mxGeometry width="30" height="30" as="geometry">
            <mxRectangle width="30" height="30" as="alternateBounds" />
          </mxGeometry>
        </mxCell>
        <mxCell id="KKkE_Qui8zbe5Bdun0iC-98" value="id_usÅ‚ugi" style="shape=partialRectangle;overflow=hidden;connectable=0;fillColor=#0050ef;top=0;left=0;bottom=0;right=0;align=left;spacingLeft=6;fontStyle=5;strokeColor=#001DBC;fontColor=#ffffff;" parent="KKkE_Qui8zbe5Bdun0iC-96" vertex="1">
          <mxGeometry x="30" width="220" height="30" as="geometry">
            <mxRectangle width="220" height="30" as="alternateBounds" />
          </mxGeometry>
        </mxCell>
        <mxCell id="KKkE_Qui8zbe5Bdun0iC-99" value="" style="shape=partialRectangle;collapsible=0;dropTarget=0;pointerEvents=0;fillColor=#0050ef;points=[[0,0.5],[1,0.5]];portConstraint=eastwest;top=0;left=0;right=0;bottom=0;strokeColor=#001DBC;fontColor=#ffffff;" parent="KKkE_Qui8zbe5Bdun0iC-95" vertex="1">
          <mxGeometry y="60" width="250" height="30" as="geometry" />
        </mxCell>
        <mxCell id="KKkE_Qui8zbe5Bdun0iC-100" value="" style="shape=partialRectangle;overflow=hidden;connectable=0;fillColor=#0050ef;top=0;left=0;bottom=0;right=0;strokeColor=#001DBC;fontColor=#ffffff;" parent="KKkE_Qui8zbe5Bdun0iC-99" vertex="1">
          <mxGeometry width="30" height="30" as="geometry">
            <mxRectangle width="30" height="30" as="alternateBounds" />
          </mxGeometry>
        </mxCell>
        <mxCell id="KKkE_Qui8zbe5Bdun0iC-101" value="nazwa" style="shape=partialRectangle;overflow=hidden;connectable=0;fillColor=#0050ef;top=0;left=0;bottom=0;right=0;align=left;spacingLeft=6;strokeColor=#001DBC;fontColor=#ffffff;" parent="KKkE_Qui8zbe5Bdun0iC-99" vertex="1">
          <mxGeometry x="30" width="220" height="30" as="geometry">
            <mxRectangle width="220" height="30" as="alternateBounds" />
          </mxGeometry>
        </mxCell>
        <mxCell id="KKkE_Qui8zbe5Bdun0iC-102" style="shape=partialRectangle;collapsible=0;dropTarget=0;pointerEvents=0;fillColor=#0050ef;points=[[0,0.5],[1,0.5]];portConstraint=eastwest;top=0;left=0;right=0;bottom=0;strokeColor=#001DBC;fontColor=#ffffff;" parent="KKkE_Qui8zbe5Bdun0iC-95" vertex="1">
          <mxGeometry y="90" width="250" height="30" as="geometry" />
        </mxCell>
        <mxCell id="KKkE_Qui8zbe5Bdun0iC-103" style="shape=partialRectangle;overflow=hidden;connectable=0;fillColor=#0050ef;top=0;left=0;bottom=0;right=0;strokeColor=#001DBC;fontColor=#ffffff;" parent="KKkE_Qui8zbe5Bdun0iC-102" vertex="1">
          <mxGeometry width="30" height="30" as="geometry">
            <mxRectangle width="30" height="30" as="alternateBounds" />
          </mxGeometry>
        </mxCell>
        <mxCell id="KKkE_Qui8zbe5Bdun0iC-104" value="opis" style="shape=partialRectangle;overflow=hidden;connectable=0;fillColor=#0050ef;top=0;left=0;bottom=0;right=0;align=left;spacingLeft=6;strokeColor=#001DBC;fontColor=#ffffff;" parent="KKkE_Qui8zbe5Bdun0iC-102" vertex="1">
          <mxGeometry x="30" width="220" height="30" as="geometry">
            <mxRectangle width="220" height="30" as="alternateBounds" />
          </mxGeometry>
        </mxCell>
        <mxCell id="KKkE_Qui8zbe5Bdun0iC-108" style="shape=partialRectangle;collapsible=0;dropTarget=0;pointerEvents=0;fillColor=#0050ef;points=[[0,0.5],[1,0.5]];portConstraint=eastwest;top=0;left=0;right=0;bottom=0;strokeColor=#001DBC;fontColor=#ffffff;" parent="KKkE_Qui8zbe5Bdun0iC-95" vertex="1">
          <mxGeometry y="120" width="250" height="30" as="geometry" />
        </mxCell>
        <mxCell id="KKkE_Qui8zbe5Bdun0iC-109" style="shape=partialRectangle;overflow=hidden;connectable=0;fillColor=#0050ef;top=0;left=0;bottom=0;right=0;strokeColor=#001DBC;fontColor=#ffffff;" parent="KKkE_Qui8zbe5Bdun0iC-108" vertex="1">
          <mxGeometry width="30" height="30" as="geometry">
            <mxRectangle width="30" height="30" as="alternateBounds" />
          </mxGeometry>
        </mxCell>
        <mxCell id="KKkE_Qui8zbe5Bdun0iC-110" value="koszt" style="shape=partialRectangle;overflow=hidden;connectable=0;fillColor=#0050ef;top=0;left=0;bottom=0;right=0;align=left;spacingLeft=6;strokeColor=#001DBC;fontColor=#ffffff;" parent="KKkE_Qui8zbe5Bdun0iC-108" vertex="1">
          <mxGeometry x="30" width="220" height="30" as="geometry">
            <mxRectangle width="220" height="30" as="alternateBounds" />
          </mxGeometry>
        </mxCell>
        <mxCell id="KKkE_Qui8zbe5Bdun0iC-127" value="Konta" style="shape=table;startSize=30;container=1;collapsible=1;childLayout=tableLayout;fixedRows=1;rowLines=0;fontStyle=1;align=center;resizeLast=1;fillColor=#0050ef;strokeColor=#001DBC;fontColor=#ffffff;" parent="1" vertex="1">
          <mxGeometry x="350" y="590" width="250" height="370" as="geometry" />
        </mxCell>
        <mxCell id="KKkE_Qui8zbe5Bdun0iC-128" value="" style="shape=partialRectangle;collapsible=0;dropTarget=0;pointerEvents=0;fillColor=#0050ef;points=[[0,0.5],[1,0.5]];portConstraint=eastwest;top=0;left=0;right=0;bottom=1;strokeColor=#001DBC;fontColor=#ffffff;" parent="KKkE_Qui8zbe5Bdun0iC-127" vertex="1">
          <mxGeometry y="30" width="250" height="30" as="geometry" />
        </mxCell>
        <mxCell id="KKkE_Qui8zbe5Bdun0iC-129" value="PK" style="shape=partialRectangle;overflow=hidden;connectable=0;fillColor=#0050ef;top=0;left=0;bottom=0;right=0;fontStyle=1;strokeColor=#001DBC;fontColor=#ffffff;" parent="KKkE_Qui8zbe5Bdun0iC-128" vertex="1">
          <mxGeometry width="30" height="30" as="geometry">
            <mxRectangle width="30" height="30" as="alternateBounds" />
          </mxGeometry>
        </mxCell>
        <mxCell id="KKkE_Qui8zbe5Bdun0iC-130" value="id_konto" style="shape=partialRectangle;overflow=hidden;connectable=0;fillColor=#0050ef;top=0;left=0;bottom=0;right=0;align=left;spacingLeft=6;fontStyle=5;strokeColor=#001DBC;fontColor=#ffffff;" parent="KKkE_Qui8zbe5Bdun0iC-128" vertex="1">
          <mxGeometry x="30" width="220" height="30" as="geometry">
            <mxRectangle width="220" height="30" as="alternateBounds" />
          </mxGeometry>
        </mxCell>
        <mxCell id="KKkE_Qui8zbe5Bdun0iC-131" value="" style="shape=partialRectangle;collapsible=0;dropTarget=0;pointerEvents=0;fillColor=#0050ef;points=[[0,0.5],[1,0.5]];portConstraint=eastwest;top=0;left=0;right=0;bottom=0;strokeColor=#001DBC;fontColor=#ffffff;" parent="KKkE_Qui8zbe5Bdun0iC-127" vertex="1">
          <mxGeometry y="60" width="250" height="30" as="geometry" />
        </mxCell>
        <mxCell id="KKkE_Qui8zbe5Bdun0iC-132" value="FK" style="shape=partialRectangle;overflow=hidden;connectable=0;fillColor=#0050ef;top=0;left=0;bottom=0;right=0;strokeColor=#001DBC;fontColor=#ffffff;" parent="KKkE_Qui8zbe5Bdun0iC-131" vertex="1">
          <mxGeometry width="30" height="30" as="geometry">
            <mxRectangle width="30" height="30" as="alternateBounds" />
          </mxGeometry>
        </mxCell>
        <mxCell id="KKkE_Qui8zbe5Bdun0iC-133" value="id_pracownik" style="shape=partialRectangle;overflow=hidden;connectable=0;fillColor=#0050ef;top=0;left=0;bottom=0;right=0;align=left;spacingLeft=6;strokeColor=#001DBC;fontColor=#ffffff;" parent="KKkE_Qui8zbe5Bdun0iC-131" vertex="1">
          <mxGeometry x="30" width="220" height="30" as="geometry">
            <mxRectangle width="220" height="30" as="alternateBounds" />
          </mxGeometry>
        </mxCell>
        <mxCell id="KKkE_Qui8zbe5Bdun0iC-134" style="shape=partialRectangle;collapsible=0;dropTarget=0;pointerEvents=0;fillColor=#0050ef;points=[[0,0.5],[1,0.5]];portConstraint=eastwest;top=0;left=0;right=0;bottom=0;strokeColor=#001DBC;fontColor=#ffffff;" parent="KKkE_Qui8zbe5Bdun0iC-127" vertex="1">
          <mxGeometry y="90" width="250" height="30" as="geometry" />
        </mxCell>
        <mxCell id="KKkE_Qui8zbe5Bdun0iC-135" value="FK" style="shape=partialRectangle;overflow=hidden;connectable=0;fillColor=#0050ef;top=0;left=0;bottom=0;right=0;strokeColor=#001DBC;fontColor=#ffffff;" parent="KKkE_Qui8zbe5Bdun0iC-134" vertex="1">
          <mxGeometry width="30" height="30" as="geometry">
            <mxRectangle width="30" height="30" as="alternateBounds" />
          </mxGeometry>
        </mxCell>
        <mxCell id="KKkE_Qui8zbe5Bdun0iC-136" value="id_klient" style="shape=partialRectangle;overflow=hidden;connectable=0;fillColor=#0050ef;top=0;left=0;bottom=0;right=0;align=left;spacingLeft=6;strokeColor=#001DBC;fontColor=#ffffff;" parent="KKkE_Qui8zbe5Bdun0iC-134" vertex="1">
          <mxGeometry x="30" width="220" height="30" as="geometry">
            <mxRectangle width="220" height="30" as="alternateBounds" />
          </mxGeometry>
        </mxCell>
        <mxCell id="KKkE_Qui8zbe5Bdun0iC-137" style="shape=partialRectangle;collapsible=0;dropTarget=0;pointerEvents=0;fillColor=#0050ef;points=[[0,0.5],[1,0.5]];portConstraint=eastwest;top=0;left=0;right=0;bottom=0;strokeColor=#001DBC;fontColor=#ffffff;" parent="KKkE_Qui8zbe5Bdun0iC-127" vertex="1">
          <mxGeometry y="120" width="250" height="30" as="geometry" />
        </mxCell>
        <mxCell id="KKkE_Qui8zbe5Bdun0iC-138" style="shape=partialRectangle;overflow=hidden;connectable=0;fillColor=#0050ef;top=0;left=0;bottom=0;right=0;strokeColor=#001DBC;fontColor=#ffffff;" parent="KKkE_Qui8zbe5Bdun0iC-137" vertex="1">
          <mxGeometry width="30" height="30" as="geometry">
            <mxRectangle width="30" height="30" as="alternateBounds" />
          </mxGeometry>
        </mxCell>
        <mxCell id="KKkE_Qui8zbe5Bdun0iC-139" value="ImiÄ™" style="shape=partialRectangle;overflow=hidden;connectable=0;fillColor=#0050ef;top=0;left=0;bottom=0;right=0;align=left;spacingLeft=6;strokeColor=#001DBC;fontColor=#ffffff;" parent="KKkE_Qui8zbe5Bdun0iC-137" vertex="1">
          <mxGeometry x="30" width="220" height="30" as="geometry">
            <mxRectangle width="220" height="30" as="alternateBounds" />
          </mxGeometry>
        </mxCell>
        <mxCell id="KKkE_Qui8zbe5Bdun0iC-140" style="shape=partialRectangle;collapsible=0;dropTarget=0;pointerEvents=0;fillColor=#0050ef;points=[[0,0.5],[1,0.5]];portConstraint=eastwest;top=0;left=0;right=0;bottom=0;strokeColor=#001DBC;fontColor=#ffffff;" parent="KKkE_Qui8zbe5Bdun0iC-127" vertex="1">
          <mxGeometry y="150" width="250" height="30" as="geometry" />
        </mxCell>
        <mxCell id="KKkE_Qui8zbe5Bdun0iC-141" style="shape=partialRectangle;overflow=hidden;connectable=0;fillColor=#0050ef;top=0;left=0;bottom=0;right=0;strokeColor=#001DBC;fontColor=#ffffff;" parent="KKkE_Qui8zbe5Bdun0iC-140" vertex="1">
          <mxGeometry width="30" height="30" as="geometry">
            <mxRectangle width="30" height="30" as="alternateBounds" />
          </mxGeometry>
        </mxCell>
        <mxCell id="KKkE_Qui8zbe5Bdun0iC-142" value="Nazwisko" style="shape=partialRectangle;overflow=hidden;connectable=0;fillColor=#0050ef;top=0;left=0;bottom=0;right=0;align=left;spacingLeft=6;strokeColor=#001DBC;fontColor=#ffffff;" parent="KKkE_Qui8zbe5Bdun0iC-140" vertex="1">
          <mxGeometry x="30" width="220" height="30" as="geometry">
            <mxRectangle width="220" height="30" as="alternateBounds" />
          </mxGeometry>
        </mxCell>
        <mxCell id="KKkE_Qui8zbe5Bdun0iC-143" style="shape=partialRectangle;collapsible=0;dropTarget=0;pointerEvents=0;fillColor=#0050ef;points=[[0,0.5],[1,0.5]];portConstraint=eastwest;top=0;left=0;right=0;bottom=0;strokeColor=#001DBC;fontColor=#ffffff;" parent="KKkE_Qui8zbe5Bdun0iC-127" vertex="1">
          <mxGeometry y="180" width="250" height="30" as="geometry" />
        </mxCell>
        <mxCell id="KKkE_Qui8zbe5Bdun0iC-144" style="shape=partialRectangle;overflow=hidden;connectable=0;fillColor=#0050ef;top=0;left=0;bottom=0;right=0;strokeColor=#001DBC;fontColor=#ffffff;" parent="KKkE_Qui8zbe5Bdun0iC-143" vertex="1">
          <mxGeometry width="30" height="30" as="geometry">
            <mxRectangle width="30" height="30" as="alternateBounds" />
          </mxGeometry>
        </mxCell>
        <mxCell id="KKkE_Qui8zbe5Bdun0iC-145" value="adres e-mail" style="shape=partialRectangle;overflow=hidden;connectable=0;fillColor=#0050ef;top=0;left=0;bottom=0;right=0;align=left;spacingLeft=6;strokeColor=#001DBC;fontColor=#ffffff;" parent="KKkE_Qui8zbe5Bdun0iC-143" vertex="1">
          <mxGeometry x="30" width="220" height="30" as="geometry">
            <mxRectangle width="220" height="30" as="alternateBounds" />
          </mxGeometry>
        </mxCell>
        <mxCell id="KKkE_Qui8zbe5Bdun0iC-149" style="shape=partialRectangle;collapsible=0;dropTarget=0;pointerEvents=0;fillColor=#0050ef;points=[[0,0.5],[1,0.5]];portConstraint=eastwest;top=0;left=0;right=0;bottom=0;strokeColor=#001DBC;fontColor=#ffffff;" parent="KKkE_Qui8zbe5Bdun0iC-127" vertex="1">
          <mxGeometry y="210" width="250" height="30" as="geometry" />
        </mxCell>
        <mxCell id="KKkE_Qui8zbe5Bdun0iC-150" value="FK" style="shape=partialRectangle;overflow=hidden;connectable=0;fillColor=#0050ef;top=0;left=0;bottom=0;right=0;strokeColor=#001DBC;fontColor=#ffffff;" parent="KKkE_Qui8zbe5Bdun0iC-149" vertex="1">
          <mxGeometry width="30" height="30" as="geometry">
            <mxRectangle width="30" height="30" as="alternateBounds" />
          </mxGeometry>
        </mxCell>
        <mxCell id="KKkE_Qui8zbe5Bdun0iC-151" value="id_numer_kierunkowy" style="shape=partialRectangle;overflow=hidden;connectable=0;fillColor=#0050ef;top=0;left=0;bottom=0;right=0;align=left;spacingLeft=6;strokeColor=#001DBC;fontColor=#ffffff;" parent="KKkE_Qui8zbe5Bdun0iC-149" vertex="1">
          <mxGeometry x="30" width="220" height="30" as="geometry">
            <mxRectangle width="220" height="30" as="alternateBounds" />
          </mxGeometry>
        </mxCell>
        <mxCell id="KKkE_Qui8zbe5Bdun0iC-179" style="shape=partialRectangle;collapsible=0;dropTarget=0;pointerEvents=0;fillColor=#0050ef;points=[[0,0.5],[1,0.5]];portConstraint=eastwest;top=0;left=0;right=0;bottom=0;strokeColor=#001DBC;fontColor=#ffffff;" parent="KKkE_Qui8zbe5Bdun0iC-127" vertex="1">
          <mxGeometry y="240" width="250" height="30" as="geometry" />
        </mxCell>
        <mxCell id="KKkE_Qui8zbe5Bdun0iC-180" style="shape=partialRectangle;overflow=hidden;connectable=0;fillColor=#0050ef;top=0;left=0;bottom=0;right=0;strokeColor=#001DBC;fontColor=#ffffff;" parent="KKkE_Qui8zbe5Bdun0iC-179" vertex="1">
          <mxGeometry width="30" height="30" as="geometry">
            <mxRectangle width="30" height="30" as="alternateBounds" />
          </mxGeometry>
        </mxCell>
        <mxCell id="KKkE_Qui8zbe5Bdun0iC-181" value="numer telefonu" style="shape=partialRectangle;overflow=hidden;connectable=0;fillColor=#0050ef;top=0;left=0;bottom=0;right=0;align=left;spacingLeft=6;strokeColor=#001DBC;fontColor=#ffffff;" parent="KKkE_Qui8zbe5Bdun0iC-179" vertex="1">
          <mxGeometry x="30" width="220" height="30" as="geometry">
            <mxRectangle width="220" height="30" as="alternateBounds" />
          </mxGeometry>
        </mxCell>
        <mxCell id="KKkE_Qui8zbe5Bdun0iC-146" style="shape=partialRectangle;collapsible=0;dropTarget=0;pointerEvents=0;fillColor=#0050ef;points=[[0,0.5],[1,0.5]];portConstraint=eastwest;top=0;left=0;right=0;bottom=0;strokeColor=#001DBC;fontColor=#ffffff;" parent="KKkE_Qui8zbe5Bdun0iC-127" vertex="1">
          <mxGeometry y="270" width="250" height="30" as="geometry" />
        </mxCell>
        <mxCell id="KKkE_Qui8zbe5Bdun0iC-147" style="shape=partialRectangle;overflow=hidden;connectable=0;fillColor=#0050ef;top=0;left=0;bottom=0;right=0;strokeColor=#001DBC;fontColor=#ffffff;" parent="KKkE_Qui8zbe5Bdun0iC-146" vertex="1">
          <mxGeometry width="30" height="30" as="geometry">
            <mxRectangle width="30" height="30" as="alternateBounds" />
          </mxGeometry>
        </mxCell>
        <mxCell id="KKkE_Qui8zbe5Bdun0iC-148" value="login" style="shape=partialRectangle;overflow=hidden;connectable=0;fillColor=#0050ef;top=0;left=0;bottom=0;right=0;align=left;spacingLeft=6;strokeColor=#001DBC;fontColor=#ffffff;" parent="KKkE_Qui8zbe5Bdun0iC-146" vertex="1">
          <mxGeometry x="30" width="220" height="30" as="geometry">
            <mxRectangle width="220" height="30" as="alternateBounds" />
          </mxGeometry>
        </mxCell>
        <mxCell id="KKkE_Qui8zbe5Bdun0iC-152" style="shape=partialRectangle;collapsible=0;dropTarget=0;pointerEvents=0;fillColor=#0050ef;points=[[0,0.5],[1,0.5]];portConstraint=eastwest;top=0;left=0;right=0;bottom=0;strokeColor=#001DBC;fontColor=#ffffff;" parent="KKkE_Qui8zbe5Bdun0iC-127" vertex="1">
          <mxGeometry y="300" width="250" height="30" as="geometry" />
        </mxCell>
        <mxCell id="KKkE_Qui8zbe5Bdun0iC-153" style="shape=partialRectangle;overflow=hidden;connectable=0;fillColor=#0050ef;top=0;left=0;bottom=0;right=0;strokeColor=#001DBC;fontColor=#ffffff;" parent="KKkE_Qui8zbe5Bdun0iC-152" vertex="1">
          <mxGeometry width="30" height="30" as="geometry">
            <mxRectangle width="30" height="30" as="alternateBounds" />
          </mxGeometry>
        </mxCell>
        <mxCell id="KKkE_Qui8zbe5Bdun0iC-154" value="hasÅ‚o" style="shape=partialRectangle;overflow=hidden;connectable=0;fillColor=#0050ef;top=0;left=0;bottom=0;right=0;align=left;spacingLeft=6;strokeColor=#001DBC;fontColor=#ffffff;" parent="KKkE_Qui8zbe5Bdun0iC-152" vertex="1">
          <mxGeometry x="30" width="220" height="30" as="geometry">
            <mxRectangle width="220" height="30" as="alternateBounds" />
          </mxGeometry>
        </mxCell>
        <mxCell id="KKkE_Qui8zbe5Bdun0iC-165" style="shape=partialRectangle;collapsible=0;dropTarget=0;pointerEvents=0;fillColor=#0050ef;points=[[0,0.5],[1,0.5]];portConstraint=eastwest;top=0;left=0;right=0;bottom=0;strokeColor=#001DBC;fontColor=#ffffff;" parent="KKkE_Qui8zbe5Bdun0iC-127" vertex="1">
          <mxGeometry y="330" width="250" height="30" as="geometry" />
        </mxCell>
        <mxCell id="KKkE_Qui8zbe5Bdun0iC-166" value="FK" style="shape=partialRectangle;overflow=hidden;connectable=0;fillColor=#0050ef;top=0;left=0;bottom=0;right=0;strokeColor=#001DBC;fontColor=#ffffff;" parent="KKkE_Qui8zbe5Bdun0iC-165" vertex="1">
          <mxGeometry width="30" height="30" as="geometry">
            <mxRectangle width="30" height="30" as="alternateBounds" />
          </mxGeometry>
        </mxCell>
        <mxCell id="KKkE_Qui8zbe5Bdun0iC-167" value="id_rabat" style="shape=partialRectangle;overflow=hidden;connectable=0;fillColor=#0050ef;top=0;left=0;bottom=0;right=0;align=left;spacingLeft=6;strokeColor=#001DBC;fontColor=#ffffff;" parent="KKkE_Qui8zbe5Bdun0iC-165" vertex="1">
          <mxGeometry x="30" width="220" height="30" as="geometry">
            <mxRectangle width="220" height="30" as="alternateBounds" />
          </mxGeometry>
        </mxCell>
        <mxCell id="KKkE_Qui8zbe5Bdun0iC-12" value="numery kierunkowe" style="shape=table;startSize=30;container=1;collapsible=1;childLayout=tableLayout;fixedRows=1;rowLines=0;fontStyle=1;align=center;resizeLast=1;fillColor=#fa6800;strokeColor=#C73500;fontColor=#000000;" parent="1" vertex="1">
          <mxGeometry x="660" y="20" width="250" height="130" as="geometry" />
        </mxCell>
        <mxCell id="KKkE_Qui8zbe5Bdun0iC-13" value="" style="shape=partialRectangle;collapsible=0;dropTarget=0;pointerEvents=0;fillColor=#fa6800;points=[[0,0.5],[1,0.5]];portConstraint=eastwest;top=0;left=0;right=0;bottom=1;strokeColor=#C73500;fontColor=#000000;" parent="KKkE_Qui8zbe5Bdun0iC-12" vertex="1">
          <mxGeometry y="30" width="250" height="30" as="geometry" />
        </mxCell>
        <mxCell id="KKkE_Qui8zbe5Bdun0iC-14" value="PK" style="shape=partialRectangle;overflow=hidden;connectable=0;fillColor=#fa6800;top=0;left=0;bottom=0;right=0;fontStyle=1;strokeColor=#C73500;fontColor=#000000;" parent="KKkE_Qui8zbe5Bdun0iC-13" vertex="1">
          <mxGeometry width="30" height="30" as="geometry">
            <mxRectangle width="30" height="30" as="alternateBounds" />
          </mxGeometry>
        </mxCell>
        <mxCell id="KKkE_Qui8zbe5Bdun0iC-15" value="id_numer kierunkowy" style="shape=partialRectangle;overflow=hidden;connectable=0;fillColor=#fa6800;top=0;left=0;bottom=0;right=0;align=left;spacingLeft=6;fontStyle=5;strokeColor=#C73500;fontColor=#000000;" parent="KKkE_Qui8zbe5Bdun0iC-13" vertex="1">
          <mxGeometry x="30" width="220" height="30" as="geometry">
            <mxRectangle width="220" height="30" as="alternateBounds" />
          </mxGeometry>
        </mxCell>
        <mxCell id="KKkE_Qui8zbe5Bdun0iC-16" value="" style="shape=partialRectangle;collapsible=0;dropTarget=0;pointerEvents=0;fillColor=#fa6800;points=[[0,0.5],[1,0.5]];portConstraint=eastwest;top=0;left=0;right=0;bottom=0;strokeColor=#C73500;fontColor=#000000;" parent="KKkE_Qui8zbe5Bdun0iC-12" vertex="1">
          <mxGeometry y="60" width="250" height="30" as="geometry" />
        </mxCell>
        <mxCell id="KKkE_Qui8zbe5Bdun0iC-17" value="" style="shape=partialRectangle;overflow=hidden;connectable=0;fillColor=#fa6800;top=0;left=0;bottom=0;right=0;strokeColor=#C73500;fontColor=#000000;" parent="KKkE_Qui8zbe5Bdun0iC-16" vertex="1">
          <mxGeometry width="30" height="30" as="geometry">
            <mxRectangle width="30" height="30" as="alternateBounds" />
          </mxGeometry>
        </mxCell>
        <mxCell id="KKkE_Qui8zbe5Bdun0iC-18" value="numer kierunkowy" style="shape=partialRectangle;overflow=hidden;connectable=0;fillColor=#fa6800;top=0;left=0;bottom=0;right=0;align=left;spacingLeft=6;strokeColor=#C73500;fontColor=#000000;" parent="KKkE_Qui8zbe5Bdun0iC-16" vertex="1">
          <mxGeometry x="30" width="220" height="30" as="geometry">
            <mxRectangle width="220" height="30" as="alternateBounds" />
          </mxGeometry>
        </mxCell>
        <mxCell id="KKkE_Qui8zbe5Bdun0iC-19" style="shape=partialRectangle;collapsible=0;dropTarget=0;pointerEvents=0;fillColor=#fa6800;points=[[0,0.5],[1,0.5]];portConstraint=eastwest;top=0;left=0;right=0;bottom=0;strokeColor=#C73500;fontColor=#000000;" parent="KKkE_Qui8zbe5Bdun0iC-12" vertex="1">
          <mxGeometry y="90" width="250" height="30" as="geometry" />
        </mxCell>
        <mxCell id="KKkE_Qui8zbe5Bdun0iC-20" style="shape=partialRectangle;overflow=hidden;connectable=0;fillColor=#fa6800;top=0;left=0;bottom=0;right=0;strokeColor=#C73500;fontColor=#000000;" parent="KKkE_Qui8zbe5Bdun0iC-19" vertex="1">
          <mxGeometry width="30" height="30" as="geometry">
            <mxRectangle width="30" height="30" as="alternateBounds" />
          </mxGeometry>
        </mxCell>
        <mxCell id="KKkE_Qui8zbe5Bdun0iC-21" value="kraj" style="shape=partialRectangle;overflow=hidden;connectable=0;fillColor=#fa6800;top=0;left=0;bottom=0;right=0;align=left;spacingLeft=6;strokeColor=#C73500;fontColor=#000000;" parent="KKkE_Qui8zbe5Bdun0iC-19" vertex="1">
          <mxGeometry x="30" width="220" height="30" as="geometry">
            <mxRectangle width="220" height="30" as="alternateBounds" />
          </mxGeometry>
        </mxCell>
        <mxCell id="KKkE_Qui8zbe5Bdun0iC-163" style="edgeStyle=orthogonalEdgeStyle;rounded=0;orthogonalLoop=1;jettySize=auto;html=1;exitX=0;exitY=0.5;exitDx=0;exitDy=0;strokeColor=#B20000;entryX=1;entryY=0.5;entryDx=0;entryDy=0;fillColor=#e51400;" parent="1" source="KKkE_Qui8zbe5Bdun0iC-24" target="KKkE_Qui8zbe5Bdun0iC-134" edge="1">
          <mxGeometry relative="1" as="geometry">
            <Array as="points">
              <mxPoint x="620" y="205" />
              <mxPoint x="620" y="695" />
            </Array>
          </mxGeometry>
        </mxCell>
        <mxCell id="KKkE_Qui8zbe5Bdun0iC-164" style="edgeStyle=orthogonalEdgeStyle;rounded=0;orthogonalLoop=1;jettySize=auto;html=1;exitX=1;exitY=0.5;exitDx=0;exitDy=0;entryX=1;entryY=0.767;entryDx=0;entryDy=0;fillColor=#60a917;strokeColor=#2D7600;entryPerimeter=0;" parent="1" source="Ke3Zf-WkF-uCMZBBV6F5-2" target="KKkE_Qui8zbe5Bdun0iC-131" edge="1">
          <mxGeometry relative="1" as="geometry">
            <Array as="points">
              <mxPoint x="610" y="65" />
              <mxPoint x="610" y="673" />
            </Array>
          </mxGeometry>
        </mxCell>
        <mxCell id="KKkE_Qui8zbe5Bdun0iC-169" style="edgeStyle=orthogonalEdgeStyle;rounded=0;orthogonalLoop=1;jettySize=auto;html=1;exitX=1;exitY=0.5;exitDx=0;exitDy=0;entryX=0;entryY=0.5;entryDx=0;entryDy=0;fillColor=#fa6800;strokeColor=#C73500;" parent="1" source="KKkE_Qui8zbe5Bdun0iC-72" target="KKkE_Qui8zbe5Bdun0iC-165" edge="1">
          <mxGeometry relative="1" as="geometry" />
        </mxCell>
        <mxCell id="KKkE_Qui8zbe5Bdun0iC-174" style="edgeStyle=orthogonalEdgeStyle;rounded=0;orthogonalLoop=1;jettySize=auto;html=1;exitX=0;exitY=0.5;exitDx=0;exitDy=0;entryX=1;entryY=0.5;entryDx=0;entryDy=0;fillColor=#fa6800;strokeColor=#C73500;" parent="1" source="KKkE_Qui8zbe5Bdun0iC-13" target="Ke3Zf-WkF-uCMZBBV6F5-14" edge="1">
          <mxGeometry relative="1" as="geometry" />
        </mxCell>
        <mxCell id="KKkE_Qui8zbe5Bdun0iC-182" style="edgeStyle=orthogonalEdgeStyle;rounded=0;orthogonalLoop=1;jettySize=auto;html=1;exitX=0;exitY=0.5;exitDx=0;exitDy=0;entryX=1;entryY=0.5;entryDx=0;entryDy=0;fillColor=#fa6800;strokeColor=#C73500;" parent="1" source="KKkE_Qui8zbe5Bdun0iC-13" target="KKkE_Qui8zbe5Bdun0iC-149" edge="1">
          <mxGeometry relative="1" as="geometry" />
        </mxCell>
        <mxCell id="KKkE_Qui8zbe5Bdun0iC-183" style="edgeStyle=orthogonalEdgeStyle;rounded=0;orthogonalLoop=1;jettySize=auto;html=1;exitX=0;exitY=0.5;exitDx=0;exitDy=0;entryX=0;entryY=0.5;entryDx=0;entryDy=0;fillColor=#fa6800;strokeColor=#C73500;" parent="1" source="KKkE_Qui8zbe5Bdun0iC-13" target="KKkE_Qui8zbe5Bdun0iC-175" edge="1">
          <mxGeometry relative="1" as="geometry">
            <Array as="points">
              <mxPoint x="630" y="65" />
              <mxPoint x="630" y="295" />
            </Array>
          </mxGeometry>
        </mxCell>
        <mxCell id="7oopjlhwkVxLOMBjlkEH-4" value="Wpisy" style="shape=table;startSize=30;container=1;collapsible=1;childLayout=tableLayout;fixedRows=1;rowLines=0;fontStyle=1;align=center;resizeLast=1;fillColor=#0050ef;strokeColor=#001DBC;fontColor=#ffffff;" parent="1" vertex="1">
          <mxGeometry x="660" y="580" width="250" height="250" as="geometry" />
        </mxCell>
        <mxCell id="7oopjlhwkVxLOMBjlkEH-5" value="" style="shape=partialRectangle;collapsible=0;dropTarget=0;pointerEvents=0;fillColor=#0050ef;points=[[0,0.5],[1,0.5]];portConstraint=eastwest;top=0;left=0;right=0;bottom=1;strokeColor=#001DBC;fontColor=#ffffff;" parent="7oopjlhwkVxLOMBjlkEH-4" vertex="1">
          <mxGeometry y="30" width="250" height="30" as="geometry" />
        </mxCell>
        <mxCell id="7oopjlhwkVxLOMBjlkEH-6" value="PK" style="shape=partialRectangle;overflow=hidden;connectable=0;fillColor=#0050ef;top=0;left=0;bottom=0;right=0;fontStyle=1;strokeColor=#001DBC;fontColor=#ffffff;" parent="7oopjlhwkVxLOMBjlkEH-5" vertex="1">
          <mxGeometry width="30" height="30" as="geometry">
            <mxRectangle width="30" height="30" as="alternateBounds" />
          </mxGeometry>
        </mxCell>
        <mxCell id="7oopjlhwkVxLOMBjlkEH-7" value="id_wpis" style="shape=partialRectangle;overflow=hidden;connectable=0;fillColor=#0050ef;top=0;left=0;bottom=0;right=0;align=left;spacingLeft=6;fontStyle=5;strokeColor=#001DBC;fontColor=#ffffff;" parent="7oopjlhwkVxLOMBjlkEH-5" vertex="1">
          <mxGeometry x="30" width="220" height="30" as="geometry">
            <mxRectangle width="220" height="30" as="alternateBounds" />
          </mxGeometry>
        </mxCell>
        <mxCell id="7oopjlhwkVxLOMBjlkEH-8" value="" style="shape=partialRectangle;collapsible=0;dropTarget=0;pointerEvents=0;fillColor=#0050ef;points=[[0,0.5],[1,0.5]];portConstraint=eastwest;top=0;left=0;right=0;bottom=0;strokeColor=#001DBC;fontColor=#ffffff;" parent="7oopjlhwkVxLOMBjlkEH-4" vertex="1">
          <mxGeometry y="60" width="250" height="30" as="geometry" />
        </mxCell>
        <mxCell id="7oopjlhwkVxLOMBjlkEH-9" value="FK" style="shape=partialRectangle;overflow=hidden;connectable=0;fillColor=#0050ef;top=0;left=0;bottom=0;right=0;strokeColor=#001DBC;fontColor=#ffffff;" parent="7oopjlhwkVxLOMBjlkEH-8" vertex="1">
          <mxGeometry width="30" height="30" as="geometry">
            <mxRectangle width="30" height="30" as="alternateBounds" />
          </mxGeometry>
        </mxCell>
        <mxCell id="7oopjlhwkVxLOMBjlkEH-10" value="id_konto" style="shape=partialRectangle;overflow=hidden;connectable=0;fillColor=#0050ef;top=0;left=0;bottom=0;right=0;align=left;spacingLeft=6;strokeColor=#001DBC;fontColor=#ffffff;" parent="7oopjlhwkVxLOMBjlkEH-8" vertex="1">
          <mxGeometry x="30" width="220" height="30" as="geometry">
            <mxRectangle width="220" height="30" as="alternateBounds" />
          </mxGeometry>
        </mxCell>
        <mxCell id="7oopjlhwkVxLOMBjlkEH-11" style="shape=partialRectangle;collapsible=0;dropTarget=0;pointerEvents=0;fillColor=#0050ef;points=[[0,0.5],[1,0.5]];portConstraint=eastwest;top=0;left=0;right=0;bottom=0;strokeColor=#001DBC;fontColor=#ffffff;" parent="7oopjlhwkVxLOMBjlkEH-4" vertex="1">
          <mxGeometry y="90" width="250" height="30" as="geometry" />
        </mxCell>
        <mxCell id="7oopjlhwkVxLOMBjlkEH-12" style="shape=partialRectangle;overflow=hidden;connectable=0;fillColor=#0050ef;top=0;left=0;bottom=0;right=0;strokeColor=#001DBC;fontColor=#ffffff;" parent="7oopjlhwkVxLOMBjlkEH-11" vertex="1">
          <mxGeometry width="30" height="30" as="geometry">
            <mxRectangle width="30" height="30" as="alternateBounds" />
          </mxGeometry>
        </mxCell>
        <mxCell id="7oopjlhwkVxLOMBjlkEH-13" value="tytuÅ‚" style="shape=partialRectangle;overflow=hidden;connectable=0;fillColor=#0050ef;top=0;left=0;bottom=0;right=0;align=left;spacingLeft=6;strokeColor=#001DBC;fontColor=#ffffff;" parent="7oopjlhwkVxLOMBjlkEH-11" vertex="1">
          <mxGeometry x="30" width="220" height="30" as="geometry">
            <mxRectangle width="220" height="30" as="alternateBounds" />
          </mxGeometry>
        </mxCell>
        <mxCell id="7oopjlhwkVxLOMBjlkEH-14" style="shape=partialRectangle;collapsible=0;dropTarget=0;pointerEvents=0;fillColor=#0050ef;points=[[0,0.5],[1,0.5]];portConstraint=eastwest;top=0;left=0;right=0;bottom=0;strokeColor=#001DBC;fontColor=#ffffff;" parent="7oopjlhwkVxLOMBjlkEH-4" vertex="1">
          <mxGeometry y="120" width="250" height="30" as="geometry" />
        </mxCell>
        <mxCell id="7oopjlhwkVxLOMBjlkEH-15" style="shape=partialRectangle;overflow=hidden;connectable=0;fillColor=#0050ef;top=0;left=0;bottom=0;right=0;strokeColor=#001DBC;fontColor=#ffffff;" parent="7oopjlhwkVxLOMBjlkEH-14" vertex="1">
          <mxGeometry width="30" height="30" as="geometry">
            <mxRectangle width="30" height="30" as="alternateBounds" />
          </mxGeometry>
        </mxCell>
        <mxCell id="7oopjlhwkVxLOMBjlkEH-16" value="treÅ›Ä‡" style="shape=partialRectangle;overflow=hidden;connectable=0;fillColor=#0050ef;top=0;left=0;bottom=0;right=0;align=left;spacingLeft=6;strokeColor=#001DBC;fontColor=#ffffff;" parent="7oopjlhwkVxLOMBjlkEH-14" vertex="1">
          <mxGeometry x="30" width="220" height="30" as="geometry">
            <mxRectangle width="220" height="30" as="alternateBounds" />
          </mxGeometry>
        </mxCell>
        <mxCell id="7oopjlhwkVxLOMBjlkEH-18" style="shape=partialRectangle;collapsible=0;dropTarget=0;pointerEvents=0;fillColor=#0050ef;points=[[0,0.5],[1,0.5]];portConstraint=eastwest;top=0;left=0;right=0;bottom=0;strokeColor=#001DBC;fontColor=#ffffff;" parent="7oopjlhwkVxLOMBjlkEH-4" vertex="1">
          <mxGeometry y="150" width="250" height="30" as="geometry" />
        </mxCell>
        <mxCell id="7oopjlhwkVxLOMBjlkEH-19" style="shape=partialRectangle;overflow=hidden;connectable=0;fillColor=#0050ef;top=0;left=0;bottom=0;right=0;strokeColor=#001DBC;fontColor=#ffffff;" parent="7oopjlhwkVxLOMBjlkEH-18" vertex="1">
          <mxGeometry width="30" height="30" as="geometry">
            <mxRectangle width="30" height="30" as="alternateBounds" />
          </mxGeometry>
        </mxCell>
        <mxCell id="7oopjlhwkVxLOMBjlkEH-20" value="data dodania" style="shape=partialRectangle;overflow=hidden;connectable=0;fillColor=#0050ef;top=0;left=0;bottom=0;right=0;align=left;spacingLeft=6;strokeColor=#001DBC;fontColor=#ffffff;" parent="7oopjlhwkVxLOMBjlkEH-18" vertex="1">
          <mxGeometry x="30" width="220" height="30" as="geometry">
            <mxRectangle width="220" height="30" as="alternateBounds" />
          </mxGeometry>
        </mxCell>
        <mxCell id="7oopjlhwkVxLOMBjlkEH-21" style="shape=partialRectangle;collapsible=0;dropTarget=0;pointerEvents=0;fillColor=#0050ef;points=[[0,0.5],[1,0.5]];portConstraint=eastwest;top=0;left=0;right=0;bottom=0;strokeColor=#001DBC;fontColor=#ffffff;" parent="7oopjlhwkVxLOMBjlkEH-4" vertex="1">
          <mxGeometry y="180" width="250" height="30" as="geometry" />
        </mxCell>
        <mxCell id="7oopjlhwkVxLOMBjlkEH-22" style="shape=partialRectangle;overflow=hidden;connectable=0;fillColor=#0050ef;top=0;left=0;bottom=0;right=0;strokeColor=#001DBC;fontColor=#ffffff;" parent="7oopjlhwkVxLOMBjlkEH-21" vertex="1">
          <mxGeometry width="30" height="30" as="geometry">
            <mxRectangle width="30" height="30" as="alternateBounds" />
          </mxGeometry>
        </mxCell>
        <mxCell id="7oopjlhwkVxLOMBjlkEH-23" value="data zatwierdzenia" style="shape=partialRectangle;overflow=hidden;connectable=0;fillColor=#0050ef;top=0;left=0;bottom=0;right=0;align=left;spacingLeft=6;strokeColor=#001DBC;fontColor=#ffffff;" parent="7oopjlhwkVxLOMBjlkEH-21" vertex="1">
          <mxGeometry x="30" width="220" height="30" as="geometry">
            <mxRectangle width="220" height="30" as="alternateBounds" />
          </mxGeometry>
        </mxCell>
        <mxCell id="7oopjlhwkVxLOMBjlkEH-24" style="shape=partialRectangle;collapsible=0;dropTarget=0;pointerEvents=0;fillColor=#0050ef;points=[[0,0.5],[1,0.5]];portConstraint=eastwest;top=0;left=0;right=0;bottom=0;strokeColor=#001DBC;fontColor=#ffffff;" parent="7oopjlhwkVxLOMBjlkEH-4" vertex="1">
          <mxGeometry y="210" width="250" height="30" as="geometry" />
        </mxCell>
        <mxCell id="7oopjlhwkVxLOMBjlkEH-25" style="shape=partialRectangle;overflow=hidden;connectable=0;fillColor=#0050ef;top=0;left=0;bottom=0;right=0;strokeColor=#001DBC;fontColor=#ffffff;" parent="7oopjlhwkVxLOMBjlkEH-24" vertex="1">
          <mxGeometry width="30" height="30" as="geometry">
            <mxRectangle width="30" height="30" as="alternateBounds" />
          </mxGeometry>
        </mxCell>
        <mxCell id="7oopjlhwkVxLOMBjlkEH-26" value="id_pracownik" style="shape=partialRectangle;overflow=hidden;connectable=0;fillColor=#0050ef;top=0;left=0;bottom=0;right=0;align=left;spacingLeft=6;strokeColor=#001DBC;fontColor=#ffffff;" parent="7oopjlhwkVxLOMBjlkEH-24" vertex="1">
          <mxGeometry x="30" width="220" height="30" as="geometry">
            <mxRectangle width="220" height="30" as="alternateBounds" />
          </mxGeometry>
        </mxCell>
        <mxCell id="7oopjlhwkVxLOMBjlkEH-17" style="edgeStyle=orthogonalEdgeStyle;rounded=0;orthogonalLoop=1;jettySize=auto;html=1;entryX=0;entryY=0.5;entryDx=0;entryDy=0;fillColor=#0050ef;strokeColor=#001DBC;" parent="1" source="KKkE_Qui8zbe5Bdun0iC-128" target="7oopjlhwkVxLOMBjlkEH-8" edge="1">
          <mxGeometry relative="1" as="geometry">
            <Array as="points">
              <mxPoint x="640" y="635" />
              <mxPoint x="640" y="655" />
            </Array>
          </mxGeometry>
        </mxCell>
        <mxCell id="7oopjlhwkVxLOMBjlkEH-27" style="edgeStyle=orthogonalEdgeStyle;rounded=0;orthogonalLoop=1;jettySize=auto;html=1;exitX=1;exitY=0.5;exitDx=0;exitDy=0;entryX=0;entryY=0.5;entryDx=0;entryDy=0;fillColor=#60a917;strokeColor=#2D7600;" parent="1" source="Ke3Zf-WkF-uCMZBBV6F5-2" target="7oopjlhwkVxLOMBjlkEH-24" edge="1">
          <mxGeometry relative="1" as="geometry">
            <Array as="points">
              <mxPoint x="610" y="65" />
              <mxPoint x="610" y="805" />
            </Array>
          </mxGeometry>
        </mxCell>
        <mxCell id="1-6nIvpEx-6DH35Sq2pv-1" value="Typy paliwa" style="shape=table;startSize=30;container=1;collapsible=1;childLayout=tableLayout;fixedRows=1;rowLines=0;fontStyle=1;align=center;resizeLast=1;fillColor=#60a917;strokeColor=#2D7600;fontColor=#ffffff;" vertex="1" parent="1">
          <mxGeometry x="350" y="970" width="250" height="100" as="geometry" />
        </mxCell>
        <mxCell id="1-6nIvpEx-6DH35Sq2pv-2" value="" style="shape=partialRectangle;collapsible=0;dropTarget=0;pointerEvents=0;fillColor=#60a917;points=[[0,0.5],[1,0.5]];portConstraint=eastwest;top=0;left=0;right=0;bottom=1;strokeColor=#2D7600;fontColor=#ffffff;" vertex="1" parent="1-6nIvpEx-6DH35Sq2pv-1">
          <mxGeometry y="30" width="250" height="30" as="geometry" />
        </mxCell>
        <mxCell id="1-6nIvpEx-6DH35Sq2pv-3" value="PK" style="shape=partialRectangle;overflow=hidden;connectable=0;fillColor=#60a917;top=0;left=0;bottom=0;right=0;fontStyle=1;strokeColor=#2D7600;fontColor=#ffffff;" vertex="1" parent="1-6nIvpEx-6DH35Sq2pv-2">
          <mxGeometry width="30" height="30" as="geometry">
            <mxRectangle width="30" height="30" as="alternateBounds" />
          </mxGeometry>
        </mxCell>
        <mxCell id="1-6nIvpEx-6DH35Sq2pv-4" value="id_typ_paliwa" style="shape=partialRectangle;overflow=hidden;connectable=0;fillColor=#60a917;top=0;left=0;bottom=0;right=0;align=left;spacingLeft=6;fontStyle=5;strokeColor=#2D7600;fontColor=#ffffff;" vertex="1" parent="1-6nIvpEx-6DH35Sq2pv-2">
          <mxGeometry x="30" width="220" height="30" as="geometry">
            <mxRectangle width="220" height="30" as="alternateBounds" />
          </mxGeometry>
        </mxCell>
        <mxCell id="1-6nIvpEx-6DH35Sq2pv-5" value="" style="shape=partialRectangle;collapsible=0;dropTarget=0;pointerEvents=0;fillColor=#60a917;points=[[0,0.5],[1,0.5]];portConstraint=eastwest;top=0;left=0;right=0;bottom=0;strokeColor=#2D7600;fontColor=#ffffff;" vertex="1" parent="1-6nIvpEx-6DH35Sq2pv-1">
          <mxGeometry y="60" width="250" height="30" as="geometry" />
        </mxCell>
        <mxCell id="1-6nIvpEx-6DH35Sq2pv-6" value="" style="shape=partialRectangle;overflow=hidden;connectable=0;fillColor=#60a917;top=0;left=0;bottom=0;right=0;strokeColor=#2D7600;fontColor=#ffffff;" vertex="1" parent="1-6nIvpEx-6DH35Sq2pv-5">
          <mxGeometry width="30" height="30" as="geometry">
            <mxRectangle width="30" height="30" as="alternateBounds" />
          </mxGeometry>
        </mxCell>
        <mxCell id="1-6nIvpEx-6DH35Sq2pv-7" value="typ_paliwa" style="shape=partialRectangle;overflow=hidden;connectable=0;fillColor=#60a917;top=0;left=0;bottom=0;right=0;align=left;spacingLeft=6;strokeColor=#2D7600;fontColor=#ffffff;" vertex="1" parent="1-6nIvpEx-6DH35Sq2pv-5">
          <mxGeometry x="30" width="220" height="30" as="geometry">
            <mxRectangle width="220" height="30" as="alternateBounds" />
          </mxGeometry>
        </mxCell>
        <mxCell id="1-6nIvpEx-6DH35Sq2pv-8" style="edgeStyle=orthogonalEdgeStyle;rounded=0;orthogonalLoop=1;jettySize=auto;html=1;exitX=0;exitY=0.5;exitDx=0;exitDy=0;entryX=1;entryY=0.5;entryDx=0;entryDy=0;fillColor=#60a917;strokeColor=#2D7600;" edge="1" parent="1" source="1-6nIvpEx-6DH35Sq2pv-2" target="Ke3Zf-WkF-uCMZBBV6F5-128">
          <mxGeometry relative="1" as="geometry">
            <Array as="points">
              <mxPoint x="320" y="1015" />
              <mxPoint x="320" y="865" />
            </Array>
          </mxGeometry>
        </mxCell>
      </root>
    </mxGraphModel>
  </diagram>
</mxfile>
